<?xml version="1.0" encoding="UTF-8" standalone="no"?>
<!-- Created with Inkscape (http://www.inkscape.org/) -->

<svg
   width="57.457775mm"
   height="41.209034mm"
   viewBox="0 0 57.457775 41.209034"
   version="1.1"
   id="svg1"
   inkscape:version="1.4.3 (0d15f75, 2025-12-25)"
   sodipodi:docname="logo-phi.svg"
   xmlns:inkscape="http://www.inkscape.org/namespaces/inkscape"
   xmlns:sodipodi="http://sodipodi.sourceforge.net/DTD/sodipodi-0.dtd"
   xmlns="http://www.w3.org/2000/svg"
   xmlns:svg="http://www.w3.org/2000/svg">
  <sodipodi:namedview
     id="namedview1"
     pagecolor="#ffffff"
     bordercolor="#000000"
     borderopacity="0.25"
     inkscape:showpageshadow="2"
     inkscape:pageopacity="0.0"
     inkscape:pagecheckerboard="0"
     inkscape:deskcolor="#d1d1d1"
     inkscape:document-units="mm"
     inkscape:zoom="1.9477379"
     inkscape:cx="122.70645"
     inkscape:cy="42.356828"
     inkscape:window-width="1920"
     inkscape:window-height="991"
     inkscape:window-x="-9"
     inkscape:window-y="-9"
     inkscape:window-maximized="1"
     inkscape:current-layer="layer1" />
  <defs
     id="defs1">
    <clipPath
       clipPathUnits="userSpaceOnUse"
       id="clipPath47">
      <path
         d="M -122.41081,-74.676102 H 40.462199 V 42.136901 H -122.41081 Z"
         id="path47" />
    </clipPath>
    <clipPath
       clipPathUnits="userSpaceOnUse"
       id="clipPath81">
      <path
         d="M -36.852301,-3.6240976 H 126.0207 V 113.18891 H -36.852301 Z"
         id="path81" />
    </clipPath>
    <clipPath
       clipPathUnits="userSpaceOnUse"
       id="clipPath87">
      <path
         d="M -85.9508,-3.6240976 H 76.922204 V 113.18891 H -85.9508 Z"
         id="path87" />
    </clipPath>
  </defs>
  <g
     inkscape:label="Calque 1"
     inkscape:groupmode="layer"
     id="layer1"
     transform="translate(-72.210605,-130.70924)">
    <g
       id="g1"
       transform="translate(-16.572644,3.8035576)">
      <path
         id="path46"
         d="m 0,0 c 0,-23.271 -18.865,-42.137 -42.137,-42.137 -23.271,0 -42.136,18.866 -42.136,42.137 0,23.271 18.865,42.137 42.136,42.137 C -18.865,42.137 0,23.271 0,0"
         style="fill:#b4d69d;fill-opacity:1;fill-rule:nonzero;stroke:none"
         transform="matrix(0.35277776,0,0,-0.35277776,131.96686,141.77064)"
         clip-path="url(#clipPath47)" />
      <path
         id="path48"
         d="m 103.38237,136.65473 c 0.12418,-0.24836 0.0829,-0.41381 0.28963,-0.70379 0.20708,-0.28963 0.49671,-0.49671 0.49671,-0.49671 0,0 0.24836,-0.0825 0.37253,-0.24836 0.12418,-0.16545 0.41417,-0.45508 0.41417,-0.45508 0,0 0.0413,-0.16581 0.24835,-0.24871 0.20673,-0.0825 0.41381,-0.16545 0.41381,-0.16545 h 0.33126 c 0,0 0.0829,0 0.24835,0.16545 0.16546,0.16581 0.0413,0.24871 0.28963,0.24871 0.24836,0 0.49672,-0.12418 0.49672,-0.12418 0,0 0.24835,-0.1658 0.33125,-0.33126 0.0829,-0.1658 0.0166,-0.60431 0.0166,-0.60431 l -0.025,-0.34783 c 0,0 0.0914,-0.16546 0.4639,-0.16546 0.37253,0 0.57926,0.0413 0.78634,0.0413 0.20708,0 0.24836,0.12418 0.41381,-0.0829 0.16581,-0.20672 0.49671,-0.49671 0.53834,-0.66216 0.0413,-0.16545 0.12418,-0.41381 0.12418,-0.41381 v -0.33126 -0.20708 l 0.16545,-0.16545 h 0.33126 l 0.37253,-0.0829 c 0,0 0.0829,-0.24836 0.0829,-0.41381 0,-0.16545 0.12418,-0.53799 0.12418,-0.53799 0,0 -0.28998,-0.0829 -0.49671,0.12418 -0.20708,0.20673 -0.33126,0.24836 -0.57961,0.37253 -0.24836,0.12418 -0.37254,0.24836 -0.53834,0.33091 -0.16546,0.0829 -0.45509,0.12418 -0.45509,0.12418 l -0.45543,0.12418 c 0,0 -0.24836,-0.0825 -0.16545,-0.24836 0.0825,-0.16545 0.3309,-0.12418 0.49671,-0.37253 0.16545,-0.24836 0.37253,-0.33091 0.53798,-0.57926 0.16546,-0.24836 0.33126,-0.37254 0.33126,-0.37254 0,0 0.0825,-0.0829 0.24836,-0.12453 0.16545,-0.0413 0.3309,-0.0825 0.45508,-0.24835 0.12453,-0.16546 0.28998,-0.28963 0.45544,-0.28963 h 0.41416 l 0.3309,0.0413 0.20708,0.20708 c 0,0 -0.12417,0.20708 0.12418,0.20708 0.24836,0 0.33126,-0.0416 0.33126,-0.0416 0,0 0.066,-0.0166 0.26494,-0.21519 0.19861,-0.19861 0.16545,-0.19861 0.23177,-0.33091 0.066,-0.13264 0.0332,-0.13264 0.13229,-0.26493 0.0995,-0.13265 0.16581,-0.23178 0.16581,-0.23178 0,0 -0.0663,0.0328 0.066,0.19862 0.13264,0.16545 0.23177,0.19861 0.13264,0.36406 -0.0995,0.16581 -0.19861,0.39758 -0.19861,0.39758 l -0.26494,0.39723 c 0,0 -0.0663,0.13265 -0.23177,0.16545 -0.16581,0.0335 -0.16581,0.0335 -0.36442,0.0663 -0.19862,0.0332 -0.16546,-0.0328 -0.2981,0.0995 -0.13229,0.13229 -0.16545,0.0663 -0.23178,0.19861 -0.0663,0.13265 -0.16545,0.36442 -0.16545,0.36442 l -0.19896,0.43039 0.33125,-0.23177 0.16581,-0.33126 0.13229,-0.19861 h 0.23178 0.16545 c 0.19897,0.16545 0.26493,0.36441 0.33126,0.23177 0.0663,-0.13229 0.0663,-0.0332 0.0995,-0.23177 0.0332,-0.19862 0.0991,-0.2981 0.0991,-0.2981 0,0 -0.0332,0.0332 0.16581,-0.13229 0.19861,-0.16581 0.0991,-0.0995 0.23177,-0.19862 0.13229,-0.0995 0.0332,-0.0332 0.19862,-0.1658 0.16545,-0.13229 0.0663,-0.0332 0.19861,-0.16546 0.13264,-0.13264 0.13264,0 0.19861,-0.19861 0.0663,-0.19897 0.16581,-0.2981 0.16581,-0.2981 v -0.36442 h -0.26494 l -0.13264,-0.0991 c 0,0 -0.0991,-0.0332 0.1658,-0.26493 0.26494,-0.23213 0.26494,-0.33126 0.39723,-0.36442 0.13265,-0.0332 0.36442,-0.0332 0.49671,-0.0991 0.13265,-0.0663 0.49671,-0.26529 0.69533,-0.2981 0.19896,-0.0332 0.49671,0 0.72884,-0.0332 0.23177,-0.0332 0.69532,-0.0332 0.99342,-0.0663 0.29774,-0.0332 0.79445,-0.0332 1.09255,-0.0332 0.2981,0 0.5962,0.0663 0.89429,0.16545 0.2981,0.0995 0.23178,0 0.69533,0.1658 0.46355,0.16546 0.72848,0.26494 0.72848,0.26494 0,0 0.0332,-0.0995 0.23178,0.13229 0.19861,0.23178 0.26493,0.39758 0.26493,0.39758 l 0.2981,0.0991 0.23178,0.0332 0.13264,0.23178 c 0,0 -0.13264,0.13264 -0.2981,0.1658 -0.1658,0.0328 -0.1658,0.0328 -0.46355,0.0328 h -0.56303 c 0,0 0.0991,0.13265 0.2981,0.2981 0.19861,0.16581 0.49671,0.26494 0.49671,0.26494 l 0.43039,0.0332 c 0,0 0.13229,-0.066 0.13229,0.0995 0,0.16545 0.0332,0.33126 0.0332,0.33126 l 0.26494,0.36407 0.19861,0.29809 c 0,0 -0.0991,0.0991 0.23213,0.23178 0.3309,0.13229 0.49671,0.16545 0.629,0.19861 0.13265,0.0332 0.2981,0.0332 0.2981,0.0332 l 0.0332,0.26494 -0.19861,0.0332 h -0.2981 c 0,0 -0.0995,-0.0995 -0.23178,-0.0995 -0.13264,0 -0.19896,0.0332 -0.19896,0.0332 0,0 -0.13229,-0.13229 -0.26494,0.16545 -0.13229,0.2981 -0.29774,0.2981 -0.29774,0.2981 0,0 -0.19897,-0.0663 -0.19897,0.1658 0,0.23178 -0.0991,0.43039 -0.0991,0.43039 v 0.2981 l -0.19861,0.19861 c 0,0 -0.19897,0.13229 -0.33126,0.0995 -0.13265,-0.0332 -0.33126,-0.0663 -0.33126,-0.0663 l -0.19862,-0.26493 0.0332,-0.16545 0.16545,-0.13265 0.23177,-0.0663 c 0,0 0.13265,-0.26494 0,-0.33091 -0.13229,-0.0663 -0.13229,-0.0995 -0.36406,-0.1658 -0.23178,-0.0663 -0.13265,-0.0991 -0.33126,-0.0663 -0.19862,0.0332 0.0332,-0.0328 -0.33126,0.0995 -0.36407,0.13264 -0.59584,0.23177 -0.59584,0.23177 l -0.23178,0.16546 -0.0995,0.19896 c 0,0 -0.0332,0.16546 -0.0332,0.2981 0,0.13229 0.0332,0.13229 -0.0991,0.29774 -0.13265,0.16581 -0.2981,0.19897 -0.36442,0.33126 -0.0663,0.13265 -0.39723,0.52988 -0.39723,0.52988 0,0 -0.1658,0.43038 -0.0995,0.62935 0.0663,0.19861 0.13229,0.39723 0.13229,0.39723 l 0.23177,0.0995 0.23213,0.19862 c 0,0 0.13229,0.0332 0.23178,0.19861 0.0991,0.16545 0.36406,0.16545 0.36406,0.16545 l 0.26494,-0.0991 0.13264,-0.2981 c 0,0 0.16546,-0.0332 0.0332,-0.29809 -0.13265,-0.26494 -0.13265,-0.26494 -0.16581,-0.39723 -0.0332,-0.13264 -0.0663,-0.16581 -0.0332,-0.33126 0.0332,-0.16545 0.0332,-0.39758 0.0332,-0.39758 l 0.0663,-0.26458 0.13229,-0.26494 0.0995,-0.19897 0.36442,0.13265 c 0,0 0.0991,0 0.13229,0.2981 0.0332,0.29774 0.0332,0.56268 0.0332,0.56268 0,0 -0.23178,0.0663 -0.19861,0.29809 0.0332,0.23178 0.16545,0.2981 0.16545,0.2981 h 0.23177 c 0.23178,0 0.23178,0 0.36442,-0.0332 0.13229,-0.0332 0.16546,-0.066 0.33091,-0.066 h 0.33126 c 0.16545,0 0.36442,0.13229 0.23177,0.19861 -0.13229,0.0663 -0.46355,0.19862 -0.46355,0.19862 l -0.19861,0.0995 -0.13265,0.23178 c 0,0 -0.0332,0.16545 -0.13229,0.29774 -0.0995,0.13265 -0.2981,0.43074 -0.2981,0.43074 l -0.29809,0.2981 c 0,0 -0.33126,0.13229 -0.49671,0.13229 -0.16546,0 -0.23178,0.0332 -0.43039,0.0995 -0.19862,0.066 -0.2981,0.23177 -0.43039,0.23177 h -0.33126 c 0,0 -0.16581,0 -0.13264,-0.13264 0.0332,-0.1323 0.0663,-0.066 0.0663,-0.29775 v -0.2981 l -0.0663,-0.19896 -0.23178,0.0995 c 0,0 -0.0332,0.0663 -0.066,0.26494 -0.0332,0.19861 -0.0995,0.36442 -0.0995,0.36442 l -0.13265,0.16545 -0.23177,0.0995 c 0,0 0.0663,0.13229 -0.19862,0.0328 -0.26493,-0.0991 -0.33125,-0.16545 -0.33125,-0.16545 l -0.0328,-0.23178 -0.13265,-0.16545 c 0,0 0,-0.0332 -0.0991,-0.19897 -0.0995,-0.16545 -0.1658,-0.23177 -0.1658,-0.23177 l -0.23178,-0.33091 -0.16545,-0.1658 c 0,0 -0.0663,-0.0991 0.0332,-0.23178 0.0991,-0.13229 0.19861,-0.23177 0.19861,-0.23177 l 0.1323,-0.13229 -0.0332,-0.19897 -0.23178,-0.13229 -0.36407,-0.16581 -0.1658,-0.0328 h -0.23178 l -0.13229,0.16546 c 0,0 -0.0332,0.19861 -0.0332,0.33125 v 0.33091 l 0.13229,0.16581 0.23213,0.26493 c 0.0991,0.23178 0.16545,0.19862 0.16545,0.39723 0,0.19861 -0.0663,0.43074 -0.0663,0.43074 0.13264,0.19862 -0.0991,0.0328 0.0995,0.29775 0.19862,0.26493 0.19862,0.33125 0.19862,0.33125 l -0.0663,0.19862 -0.33091,0.0663 -0.26494,-0.0995 -0.0995,-0.19862 -0.0663,-0.33126 c 0,0 -0.0332,-0.0991 0,-0.26458 0.0332,-0.1658 0.0332,-0.4639 0.0332,-0.4639 l -0.2981,-0.39723 -0.2981,-0.19861 c 0,0 -0.19861,-0.0332 -0.19861,0.13229 0,0.16545 0.0332,0.2981 0.0332,0.2981 v 0.26493 l -0.0991,0.2981 -0.26493,0.26494 -0.2981,0.13229 0.49671,0.36442 0.26494,0.26493 c 0,0 0.39722,0.36407 0.49671,0.79446 0.0991,0.43074 0.16545,1.05974 0.16545,1.05974 0,0 0,0.0995 -0.16545,0.33126 -0.16581,0.23178 -0.43075,0.26494 -0.43075,0.26494 h -0.43038 c 0,0 -0.19862,-0.0663 -0.2981,0.0995 -0.0991,0.16545 -0.16545,0.0991 -0.23178,0.23177 -0.066,0.1323 -0.13229,0.19862 -0.13229,0.19862 l -0.19861,0.23177 -0.19897,0.26494 c 0,0 -0.0991,0.19861 -0.0991,0.36442 v 0.49671 l 0.0663,0.23178 0.23178,0.16545 c 0,0 -0.0663,0 0.23177,0.0663 0.2981,0.066 0.19862,0.0332 0.36407,0.0991 0.16581,0.0663 0.39758,0.0995 0.39758,0.0995 l 0.33091,0.0991 0.33125,0.0667 -0.0332,0.16545 -0.39722,0.2981 c 0,0 -0.66252,0.16545 -0.82797,0.26458 -0.16546,0.0995 -0.56304,0.33126 -0.79481,0.43074 -0.23178,0.0991 -0.36407,0.23143 -0.52987,0.26459 -0.16546,0.0335 -0.26494,0.0995 -0.43039,0.19896 -0.16546,0.0991 -0.52988,0.2981 -0.69533,0.39723 -0.1658,0.0995 -0.49706,0.36407 -0.49706,0.36407 l -0.33091,0.53022 c 0,0 -0.29809,0.26494 -0.33126,0.62901 -0.0332,0.36442 -0.0991,0.72884 -0.16545,1.02658 -0.0663,0.2981 -0.0663,0.43039 -0.1658,0.56303 -0.0991,0.13265 -0.0991,0.16546 -0.19862,0.33091 -0.0991,0.1658 -0.2981,0.23213 -0.0991,0.29845 0.19862,0.066 0.29775,0 0.46355,0.0991 0.16545,0.0991 0.69533,0.2981 0.69533,0.2981 0,0 0.23177,-0.0995 0.29809,0.59584 0.0663,0.69568 0.0663,0.86113 0.0663,0.86113 0,0 0.16545,0.0332 0.3309,0.0332 0.16581,0 0.62936,0.0332 0.62936,0.0332 l 0.23177,0.19861 0.16545,0.26494 c 0,0 0.0995,0.19897 0.26494,0.23178 0.16581,0.0332 0.66252,0.0995 0.66252,0.0995 0,0 0.23177,0.0332 0.49671,0.066 0.26493,0.0332 0.39723,-0.0328 0.69532,0.0332 0.2981,0.0663 0.2981,-0.0332 0.56304,0.0663 0.26493,0.0995 0.3309,0.0995 0.49671,0.13229 0.16545,0.0332 0.33126,0 0.59584,0.0332 0.26494,0.0335 0.4639,0.0335 0.4639,0.0335 0,0 0.26494,0.13229 0.39723,0.16545 0.13264,0.0328 0.23177,-0.0332 0.26494,0.26458 0.0332,0.2981 0,0.56339 0,0.56339 0,0 -0.0995,0.19826 0,0.33126 0.0995,0.13194 0.0332,0.0328 0.13229,0.16545 0.0995,0.13229 0.26493,0 0.36442,0.16545 0.0995,0.16581 0.0995,0.39723 0.0995,0.39723 0,0 -0.0663,0.13265 -0.0663,0.26529 0,0.13229 0.0995,0.43004 0.0332,0.59584 -0.0663,0.16546 -0.0995,0.46355 -0.0995,0.46355 0,0 0.0663,0.46355 0.13264,0.5962 0.066,0.13229 0.16545,0.29774 0.16545,0.29774 l 0.23178,0.36442 c 0,0 -2.1523,0.0663 -3.90737,-0.23177 -1.75542,-0.2981 -2.28494,-0.43039 -3.37785,-0.99343 -1.0929,-0.56303 -2.91429,-1.7219 -3.411,-2.25178 -0.49671,-0.52987 -1.39065,-1.19239 -1.78823,-1.72226 -0.39723,-0.52952 -0.36407,-0.86078 -0.19862,-0.89394 0.16581,-0.0328 0.56304,-0.0328 0.56304,-0.0328 0,0 0.0663,-0.0998 0.0663,-0.33126 0,-0.23213 0.16545,-0.19897 -0.0332,-0.43074 -0.19897,-0.23178 -0.56304,-0.69533 -0.56304,-0.69533 0,0 -0.16545,-0.26494 -0.52987,-0.43074 -0.36407,-0.16545 -0.52987,-0.26458 -0.49671,-0.49671 0.0332,-0.23178 0.19861,-0.13229 -0.13229,-0.39723 -0.33126,-0.26494 -0.4639,-0.29774 -0.4639,-0.29774 l -0.23178,-0.0995 c 0,0 -0.0328,-0.52987 -0.0328,-0.69532 0,-0.16546 -0.1658,-0.86113 -0.1658,-0.86113 l -0.2981,-0.26494 c 0,0 -0.26494,0.0328 -0.33091,-0.39723 -0.0663,-0.43074 -0.36442,-1.65594 -0.36442,-1.65594 0,0 0.33126,-4.00685 0.52988,-4.96711 0.19861,-0.96026 0.37253,-1.21708 0.37253,-1.21708"
         style="fill:#ffffff;fill-opacity:1;fill-rule:evenodd;stroke:none;stroke-width:0.352778" />
      <path
         id="path49"
         d="m 107.94396,133.99726 c 0.13264,-0.0663 0.49671,-0.0991 0.49671,-0.0991 0,0 0.19861,-0.19897 0.19861,0 0,0.19861 0.19862,0.13229 0,0.19861 -0.19861,0.066 -0.39722,0.13229 -0.39722,0.13229 0.0663,0.19862 0,0.33126 0,0.33126 l -0.0332,0.33126 c 0,0 -0.0332,0.16545 -0.16581,0.29775 -0.13229,0.13264 -0.23177,0.23177 -0.23177,0.23177 l -0.1323,-0.3309 c 0,0 -0.0332,-0.0663 0,-0.33126 0.0332,-0.26494 0.0332,-0.43039 0.0332,-0.43039 0,0 0.0991,-0.26494 0.23177,-0.33126"
         style="fill:#b4d69d;fill-opacity:1;fill-rule:evenodd;stroke:none;stroke-width:0.352778" />
      <path
         id="path50"
         d="m 111.98397,132.01038 c 0.36442,-0.46355 0.86113,-0.96026 1.29152,-1.19204 0.43039,-0.23177 0.23177,-0.13264 0.629,-0.39758 0.39758,-0.26493 0.43074,-0.36406 0.56304,-0.49671 0.13264,-0.13229 0.1658,-0.36406 0.1658,-0.36406 0,0 0.13229,-0.16581 0.19861,-0.2981 0.066,-0.13265 0.0332,-0.19862 0.19862,-0.23178 0.16545,-0.0332 0.0332,0 0.26493,-0.0663 0.23178,-0.0663 0.2981,-0.13229 0.2981,-0.13229 l 0.26494,-0.0663 0.3309,0.16545 c 0,0 -0.26493,0.16581 0.23178,0.19861 0.49671,0.0332 0.4639,0 0.59619,0.0332 0.13265,0.0332 0.23178,-0.0332 0.33126,0.23177 0.0991,0.26494 0.16545,0.16581 0.0332,0.49671 -0.13264,0.33126 -0.26493,0.49671 -0.43074,0.66252 -0.16545,0.16545 -0.46355,0.52987 -0.46355,0.52987 0,0 0.0332,0.13229 -0.2981,0.19861 -0.3309,0.0663 -0.52987,0.0663 -0.9271,0.16546 -0.39722,0.0995 -0.49671,0.13264 -0.82797,0.19861 -0.3309,0.0663 0.13265,-0.0991 -0.69532,0.2981 -0.82797,0.39758 -1.09291,0.59619 -1.09291,0.59619 0,0 0.16581,0.13229 -0.19861,0.19862 -0.36407,0.0663 -0.39723,0.0663 -0.39723,0.0663 z"
         style="fill:#b4d69d;fill-opacity:1;fill-rule:evenodd;stroke:none;stroke-width:0.352778" />
      <path
         id="path51"
         d="m 114.89809,132.44091 c -0.0995,0.13264 -0.26494,0.23177 -0.26494,0.36407 0,0.13264 -0.0663,0.19896 0.13265,0.29809 0.19861,0.0995 0.43039,0.0995 0.59584,0.13265 0.16581,0.0332 0.59619,0 0.59619,0 l 0.23178,-0.16545 c 0,0 0.0995,-0.16581 -0.0663,-0.16581 -0.16546,0 -0.52988,-0.0663 -0.52988,-0.0663 -0.0991,-0.19862 -0.29809,-0.49671 -0.29809,-0.49671 z"
         style="fill:#b4d69d;fill-opacity:1;fill-rule:evenodd;stroke:none;stroke-width:0.352778" />
      <path
         id="path52"
         d="m 117.48106,140.3885 0.23177,0.0663 c 0,0 0.2981,0.49671 0.36442,0.66217 0.066,0.16545 0.0991,0.29809 0.26494,0.36406 0.16545,0.0663 0.52987,0.36442 0.52987,0.36442 0,0 0.13229,0.0995 0.26459,0.19862 0.13264,0.0995 0.33125,0.0995 0.33125,0.0995 l -0.0663,-0.33126 c 0,0 -0.3309,-0.56303 -0.46355,-0.76165 -0.13229,-0.19861 -0.3309,-0.49671 -0.3309,-0.49671 v -0.36406 c 0,0 0.13229,-0.0663 0.3309,0.066 0.19862,0.13264 0.43074,0.39758 0.43074,0.39758 l 0.49671,0.52987 c 0,0 0.066,0.0332 0.16546,0.29774 0.0995,0.26529 0.29809,0.56304 0.29809,0.56304 0,0 0.0991,0.0995 0.2981,0.33125 0.19862,0.23178 0.26494,0.23178 0.43039,0.36442 0.16545,0.1323 0.0332,-0.33125 0.39723,0.46355 0.36442,0.79481 0.43074,1.15923 0.39758,1.35749 -0.0332,0.19862 -0.43074,0.46391 -0.56303,0.56304 -0.13265,0.0995 -0.72849,0.23212 -0.72849,0.23212 0,0 0,0.0328 -0.36442,-0.0667 -0.36407,-0.0991 -0.56268,-0.13229 -0.56268,-0.26458 0,-0.13265 -0.0995,-0.43075 -0.13264,-0.5962 -0.0332,-0.1658 0.59619,0.2981 -0.19862,-0.36442 -0.79481,-0.66216 -1.32468,-0.9271 -1.32468,-0.9271 0,0 -0.0663,-0.0991 -0.23177,-0.16545 -0.16546,-0.0663 -0.52988,-0.0995 -0.56304,-0.23178 -0.0332,-0.13264 -0.19861,-0.36442 -0.19861,-0.36442 0,0 0.0663,-0.0663 0.19861,-0.13229 0.13265,-0.0663 -0.0991,-0.0995 0.19862,-0.0995 0.29809,0 0.33125,-0.0663 0.33125,-0.0663 0,0 0.0663,0 0.0995,-0.16546 0.0332,-0.16545 0.2981,-0.19861 0.0332,-0.26493 -0.26494,-0.0663 -0.72884,-0.13229 -0.72884,-0.13229 0,0 -0.16545,0.19861 -0.26494,-0.0995 -0.0991,-0.29809 -0.13229,-0.43074 -0.13229,-0.43074 l 0.13229,-0.36407 z"
         style="fill:#ffffff;fill-opacity:1;fill-rule:evenodd;stroke:none;stroke-width:0.352778" />
      <path
         id="path53"
         d="m 123.60733,143.83249 c 0,0 0.69532,0.49671 0.82797,0.59584 0.13229,0.0995 0.52987,0.56303 0.629,0.72884 0.0995,0.16545 0.26494,0.26458 0.36442,0.43004 0.0991,0.1658 0.26494,0.26529 0.33091,0.43109 0.0663,0.16545 0.1658,0.23142 0.23212,0.43004 0.066,0.19896 0.0991,0.0335 0.16546,0.33126 0.0663,0.29809 0.26493,0.56303 0.26493,0.56303 0,0 -0.0332,-0.0332 0.23178,-0.16581 0.26493,-0.13229 0.56303,-0.46355 0.56303,-0.46355 0,0 0.2981,-0.0991 0.43039,-0.36406 0.13229,-0.26494 -0.0332,-0.0332 0.16545,-0.39758 0.19897,-0.36442 0.26494,-0.39723 0.39758,-0.52988 0.1323,-0.13229 0.16546,-0.16545 0.2981,-0.26458 0.13229,-0.0995 0.0991,0.0332 0.23178,-0.36442 0.13229,-0.39723 0.13229,-0.56303 0.13229,-0.56303 0,0 0.0995,-0.0991 0,-0.26494 -0.0991,-0.16545 0.0332,-0.0991 -0.19862,-0.23177 -0.23177,-0.13265 -0.52987,-0.2981 -0.52987,-0.2981 0,0 -0.0332,0.0332 -0.0332,0.19897 0,0.16545 -0.0332,0.29774 -0.0332,0.29774 0,0 0.0663,0.0995 -0.19861,0.0995 -0.26494,0 -0.0995,0.0332 -0.39723,-0.0663 -0.2981,-0.0991 -0.52987,-0.23177 -0.52987,-0.23177 0,0 -0.26494,-0.0991 -0.26494,-0.26494 0,-0.16545 0.0663,-0.36442 0.0663,-0.36442 0,0 0.0991,-0.16545 0.23178,-0.16545 h 0.43039 0.43038 0.36442 c 0.16546,0 0.19862,-0.13229 0.33091,-0.19862 0.13264,-0.066 0.26494,-0.23177 0.26494,-0.23177 0,0 0.23212,-0.0332 0.39758,-0.0332 0.16545,0 -0.0332,-0.0332 0.33125,-0.0332 h 0.79446 l 0.52987,0.0663 0.52987,0.52987 c 0,0 -0.19861,2.18546 -0.39722,2.78165 -0.19862,0.59585 -1.39101,2.81482 -2.02001,3.70876 -0.62935,0.89429 -1.12607,1.58961 -1.45697,1.88771 -0.33126,0.2981 -0.26494,0 -0.43074,-0.1658 -0.16546,-0.16546 -0.23178,-0.33091 -0.33091,-0.16546 -0.0995,0.16546 -0.1658,0 -0.23213,0.43039 -0.066,0.43074 0,0.36477 -0.0991,0.56303 -0.0995,0.19862 -0.19861,0.19862 -0.33125,0.29845 -0.1323,0.0991 -0.16546,-0.0667 -0.2981,0.16546 -0.13229,0.23142 -0.33091,0.46319 -0.33091,0.46319 l -0.29809,0.49707 -0.52988,0.39723 -0.52987,0.19861 c 0,0 -0.33126,-0.46355 -0.13229,-0.79481 0.19861,-0.3309 0.66216,-0.92675 0.66216,-0.92675 0,0 -0.29809,0.0991 0.0995,-0.6297 0.39722,-0.72849 0.39722,-0.76165 0.46355,-0.96026 0.066,-0.19862 -0.13265,0.26528 0.19861,-0.33091 0.33126,-0.59619 0.43039,-0.79481 0.43039,-0.79481 0,0 -0.16545,0.16545 0.26494,-0.13264 0.43038,-0.29775 0.52987,-0.43039 0.52987,-0.43039 0,0 0.0663,-0.16545 0.26493,-0.26494 0.19862,-0.0991 0.36442,-0.1658 0.36442,-0.1658 0,0 -0.0332,0.1658 0.16546,-0.19826 0.19861,-0.36442 0.43038,-0.96062 0.43038,-0.96062 l -0.23177,-0.0991 -0.79481,0.46355 -0.3309,0.33126 c 0,0 -0.2981,0.066 -0.43075,0 -0.13229,-0.0663 -0.19861,-0.0995 -0.19861,-0.0995 l -0.0995,-0.26494 -0.23178,-0.13229 c 0,0 -0.13229,0.0991 -0.26493,-0.0663 -0.1323,-0.16546 -0.23178,-0.0995 -0.33091,-0.43075 -0.0995,-0.3309 -0.0995,-0.26493 -0.16581,-0.52952 -0.066,-0.26528 -0.26493,-0.762 -0.3309,-0.89429 -0.0663,-0.13229 -0.19861,-0.29809 -0.19861,-0.29809 0,0 -0.0332,-0.0663 -0.26494,-0.19862 -0.23213,-0.13229 -0.43074,-0.2981 -0.43074,-0.2981 0,0 -0.0991,0 -0.0991,-0.16545 0,-0.16545 -0.0663,-0.39758 -0.0663,-0.39758 z"
         style="fill:#ffffff;fill-opacity:1;fill-rule:evenodd;stroke:none;stroke-width:0.352778" />
      <path
         id="path54"
         d="m 95.621111,160.18279 c 0.39405,0 0.4572,-0.25153 0.4572,-0.37359 0,-0.29351 -0.23918,-0.36054 -0.46567,-0.36054 h -0.29774 v 1.16593 z m -1.07774,1.67746 v -2.96087 h 1.27918 c 0.53269,0 1.03152,0.26847 1.03152,0.88477 0,0.18062 -0.0713,0.9017 -1.15747,0.9017 h -0.3817 v 1.1744 z"
         style="fill:#00684b;fill-opacity:1;fill-rule:nonzero;stroke:none;stroke-width:0.352778" />
      <path
         id="path55"
         d="m 98.452401,161.86039 v -1.06962 c 0,-0.31009 -0.042,-0.56198 -0.34819,-0.56198 -0.12559,0 -0.27235,0.0632 -0.36901,0.13018 v 1.50142 h -0.68333 v -2.96122 h 0.68333 v 1.35079 l 0.29775,-0.46143 c 0.0547,-0.0127 0.21413,-0.0505 0.38594,-0.0505 0.67098,0 0.69638,0.50765 0.69638,0.70873 v 1.41358 z"
         style="fill:#00684b;fill-opacity:1;fill-rule:nonzero;stroke:none;stroke-width:0.352778" />
      <path
         id="path56"
         d="m 100.65465,160.96694 c -0.0293,-0.004 -0.13829,-0.0127 -0.20567,-0.0127 -0.18027,0 -0.43603,0.0508 -0.43603,0.28963 0,0.11748 0.0755,0.25153 0.32702,0.25153 0.11748,0 0.20991,-0.0296 0.31468,-0.0713 z m 0.0127,0.89359 c -0.008,-0.10937 -0.0127,-0.21414 -0.0127,-0.31892 l -0.28116,0.34784 c -0.0586,0.008 -0.12983,0.0212 -0.2473,0.0212 -0.402519,0 -0.759179,-0.1972 -0.759179,-0.64594 0,-0.17603 0.084,-0.70026 0.964849,-0.70026 0.15099,0 0.27234,0.0208 0.32279,0.0254 0,-0.33161 -0.23495,-0.41557 -0.4445,-0.41557 -0.14252,0 -0.335489,0.0169 -0.670979,0.16369 l 0.30621,-0.5327 c 0.251529,-0.0586 0.465309,-0.067 0.561619,-0.067 0.39441,0 0.88512,0.1217 0.88512,0.72989 v 1.04846 c 0,0.10054 0.008,0.24729 0.0166,0.34396 z"
         style="fill:#00684b;fill-opacity:1;fill-rule:nonzero;stroke:none;stroke-width:0.352778" />
      <path
         id="path57"
         d="m 101.68251,161.86039 v -2.07186 h 0.68368 v 0.4191 l 0.28928,-0.4191 c 0.15522,-0.0505 0.30621,-0.0547 0.36901,-0.0547 0.0212,0 0.0755,0 0.12594,0.0127 v 0.6671 c -0.14676,-0.1009 -0.2854,-0.17639 -0.4699,-0.17639 -0.16334,0 -0.26,0.0547 -0.31433,0.0878 v 1.53529 z"
         style="fill:#00684b;fill-opacity:1;fill-rule:nonzero;stroke:none;stroke-width:0.352778" />
      <path
         id="path58"
         d="m 106.11996,161.86039 v -1.15358 c 0,-0.26 -0.042,-0.47802 -0.34819,-0.47802 -0.17604,0 -0.32279,0.0924 -0.36054,0.12171 v 1.50989 h -0.67945 v -1.1998 c 0,-0.10477 0,-0.42756 -0.33126,-0.42756 -0.14711,0 -0.25576,0.0459 -0.37747,0.109 v 1.51836 h -0.67945 v -2.07186 h 0.67945 v 0.43603 l 0.29774,-0.41945 c 0.067,-0.0208 0.22225,-0.0713 0.41522,-0.0713 0.39406,0 0.62054,0.2099 0.66252,0.49918 l 0.31044,-0.4318 c 0.0713,-0.0212 0.22649,-0.0674 0.43604,-0.0674 0.27693,0 0.6544,0.13864 0.6544,0.61665 v 1.50989 z"
         style="fill:#00684b;fill-opacity:1;fill-rule:nonzero;stroke:none;stroke-width:0.352778" />
      <path
         id="path59"
         d="m 108.34743,160.96694 c -0.0293,-0.004 -0.13829,-0.0127 -0.20567,-0.0127 -0.18027,0 -0.43603,0.0508 -0.43603,0.28963 0,0.11748 0.0755,0.25153 0.32702,0.25153 0.11748,0 0.20991,-0.0296 0.31468,-0.0713 z m 0.0127,0.89359 c -0.008,-0.10937 -0.0127,-0.21414 -0.0127,-0.31892 l -0.28116,0.34784 c -0.0586,0.008 -0.12983,0.0212 -0.2473,0.0212 -0.40252,0 -0.75918,-0.1972 -0.75918,-0.64594 0,-0.17603 0.084,-0.70026 0.96485,-0.70026 0.15099,0 0.27234,0.0208 0.32279,0.0254 0,-0.33161 -0.23495,-0.41557 -0.4445,-0.41557 -0.14252,0 -0.33549,0.0169 -0.67098,0.16369 l 0.30621,-0.5327 c 0.25153,-0.0586 0.46531,-0.067 0.56162,-0.067 0.39441,0 0.88512,0.1217 0.88512,0.72989 v 1.04846 c 0,0.10054 0.008,0.24729 0.0166,0.34396 z"
         style="fill:#00684b;fill-opacity:1;fill-rule:nonzero;stroke:none;stroke-width:0.352778" />
      <path
         id="path60"
         d="m 111.02343,160.41347 c -0.067,-0.0628 -0.22648,-0.20144 -0.47801,-0.20144 -0.3482,0 -0.55351,0.27693 -0.55351,0.60819 0,0.37324 0.2473,0.63747 0.629,0.63747 0.21378,0 0.42333,-0.0882 0.48225,-0.10901 l -0.2727,0.49918 c -0.0713,0.0166 -0.26846,0.0628 -0.44873,0.0628 -0.65405,0 -1.09467,-0.4572 -1.09467,-1.08197 0,-0.50765 0.33549,-1.09467 1.14511,-1.09467 0.28082,0 0.48649,0.0751 0.59126,0.11748 z"
         style="fill:#00684b;fill-opacity:1;fill-rule:nonzero;stroke:none;stroke-width:0.352778" />
      <path
         id="path61"
         d="m 111.62326,159.54521 c -0.1845,0 -0.33126,-0.15064 -0.33126,-0.33549 0,-0.1845 0.14676,-0.33126 0.33126,-0.33126 0.1845,0 0.33126,0.14676 0.33126,0.33126 0,0.18873 -0.14252,0.33549 -0.33126,0.33549 m -0.33549,0.24342 h 0.67521 v 2.07186 h -0.67521 z"
         style="fill:#00684b;fill-opacity:1;fill-rule:nonzero;stroke:none;stroke-width:0.352778" />
      <path
         id="path62"
         d="m 113.78765,160.56425 c 0,-0.17604 -0.10901,-0.42369 -0.39864,-0.42369 -0.33972,0 -0.42333,0.3609 -0.42333,0.42369 z m -0.80927,0.36477 c 0.042,0.20567 0.15063,0.5327 0.72108,0.5327 0.1217,0 0.37747,-0.0166 0.67098,-0.13829 l -0.29739,0.51999 c -0.10936,0.0254 -0.31468,0.067 -0.59161,0.067 -0.10901,0 -0.54928,0 -0.86819,-0.26 -0.14252,-0.11712 -0.3563,-0.37747 -0.3563,-0.83008 0,-0.48225 0.28504,-1.08233 1.11125,-1.08233 0.49494,0 1.07385,0.23072 1.07385,1.12395 v 0.067 z"
         style="fill:#00684b;fill-opacity:1;fill-rule:nonzero;stroke:none;stroke-width:0.352778" />
      <path
         id="path63"
         d="m 117.88132,161.86039 v -1.26224 h -1.15323 v 1.26224 h -0.77188 v -2.96122 h 0.77188 v 1.10737 h 1.15323 v -1.10737 h 0.77611 v 2.96122 z"
         style="fill:#00684b;fill-opacity:1;fill-rule:nonzero;stroke:none;stroke-width:0.352778" />
      <path
         id="path64"
         d="m 120.46958,161.86039 v -0.4699 l -0.32314,0.4572 c -0.16334,0.0547 -0.30622,0.0628 -0.39829,0.0628 -0.13018,0 -0.67522,-0.0377 -0.67522,-0.70026 v -1.42169 h 0.67099 v 1.19944 c 0,0.2727 0.0882,0.42369 0.33125,0.42369 0.0713,0 0.23495,-0.0212 0.39441,-0.13864 v -1.48449 h 0.66675 v 2.07186 z"
         style="fill:#00684b;fill-opacity:1;fill-rule:nonzero;stroke:none;stroke-width:0.352778" />
      <path
         id="path65"
         d="m 124.29479,161.86039 v -1.15358 c 0,-0.26 -0.042,-0.47802 -0.34819,-0.47802 -0.17604,0 -0.32279,0.0924 -0.36054,0.12171 v 1.50989 h -0.67945 v -1.1998 c 0,-0.10477 0,-0.42756 -0.33126,-0.42756 -0.14675,0 -0.25612,0.0459 -0.37747,0.109 v 1.51836 h -0.67945 v -2.07186 h 0.67945 v 0.43603 l 0.29774,-0.41945 c 0.067,-0.0208 0.2219,-0.0713 0.41487,-0.0713 0.39476,0 0.62089,0.2099 0.66287,0.49918 l 0.31044,-0.4318 c 0.0713,-0.0212 0.22649,-0.0674 0.43604,-0.0674 0.27657,0 0.6544,0.13864 0.6544,0.61665 v 1.50989 z"
         style="fill:#00684b;fill-opacity:1;fill-rule:nonzero;stroke:none;stroke-width:0.352778" />
      <path
         id="path66"
         d="m 126.52233,160.96694 c -0.0293,-0.004 -0.13829,-0.0127 -0.20567,-0.0127 -0.18027,0 -0.43603,0.0508 -0.43603,0.28963 0,0.11748 0.0755,0.25153 0.32702,0.25153 0.11748,0 0.20991,-0.0296 0.31468,-0.0713 z m 0.0123,0.89359 c -0.008,-0.10937 -0.0123,-0.21414 -0.0123,-0.31892 l -0.28116,0.34784 c -0.0586,0.008 -0.12983,0.0212 -0.2473,0.0212 -0.40287,0 -0.75918,-0.1972 -0.75918,-0.64594 0,-0.17603 0.084,-0.70026 0.9645,-0.70026 0.15134,0 0.27269,0.0208 0.32314,0.0254 0,-0.33161 -0.23495,-0.41557 -0.4445,-0.41557 -0.14287,0 -0.33549,0.0169 -0.67134,0.16369 l 0.30622,-0.5327 c 0.25188,-0.0586 0.46566,-0.067 0.56197,-0.067 0.39441,0 0.88512,0.1217 0.88512,0.72989 v 1.04846 c 0,0.10054 0.008,0.24729 0.0169,0.34396 z"
         style="fill:#00684b;fill-opacity:1;fill-rule:nonzero;stroke:none;stroke-width:0.352778" />
      <path
         id="path67"
         d="m 128.94655,161.86039 v -1.07774 c 0,-0.36089 -0.0755,-0.54539 -0.37747,-0.54539 -0.0797,0 -0.2099,0.0212 -0.35666,0.13406 v 1.48907 h -0.66252 v -2.07186 h 0.66252 v 0.4699 l 0.33161,-0.4572 c 0.12559,-0.042 0.25153,-0.0632 0.38559,-0.0632 0.54116,0 0.68403,0.36089 0.68403,0.72143 v 1.40088 z"
         style="fill:#00684b;fill-opacity:1;fill-rule:nonzero;stroke:none;stroke-width:0.352778" />
      <path
         id="path68"
         d="m 130.32259,159.54521 c -0.1845,0 -0.33126,-0.15064 -0.33126,-0.33549 0,-0.1845 0.14676,-0.33126 0.33126,-0.33126 0.1845,0 0.33126,0.14676 0.33126,0.33126 0,0.18873 -0.14252,0.33549 -0.33126,0.33549 m -0.33549,0.24342 h 0.67521 v 2.07186 h -0.67521 z"
         style="fill:#00684b;fill-opacity:1;fill-rule:nonzero;stroke:none;stroke-width:0.352778" />
      <path
         id="path69"
         d="m 131.03147,159.78849 h 0.0547 v -0.37324 l 0.66252,-0.20532 v 0.57856 h 0.49882 v 0.47801 h -0.49882 v 0.79693 c 0,0.36477 0.25153,0.369 0.35207,0.369 0.0801,0 0.14287,-0.008 0.28963,-0.0501 l -0.35243,0.48648 c -0.0547,0.0123 -0.1718,0.0378 -0.30162,0.0378 -0.23918,0 -0.65017,-0.0505 -0.65017,-0.62936 v -1.01071 h -0.30621 z"
         style="fill:#00684b;fill-opacity:1;fill-rule:nonzero;stroke:none;stroke-width:0.352778" />
      <path
         id="path70"
         d="m 133.6864,160.96694 c -0.0293,-0.004 -0.13829,-0.0127 -0.20567,-0.0127 -0.18027,0 -0.43603,0.0508 -0.43603,0.28963 0,0.11748 0.0755,0.25153 0.32702,0.25153 0.11748,0 0.20991,-0.0296 0.31468,-0.0713 z m 0.0127,0.89359 c -0.008,-0.10937 -0.0127,-0.21414 -0.0127,-0.31892 l -0.28081,0.34784 c -0.0589,0.008 -0.13018,0.0212 -0.24765,0.0212 -0.40287,0 -0.75918,-0.1972 -0.75918,-0.64594 0,-0.17603 0.084,-0.70026 0.9645,-0.70026 0.15098,0 0.27269,0.0208 0.32314,0.0254 0,-0.33161 -0.23495,-0.41557 -0.4445,-0.41557 -0.14287,0 -0.33549,0.0169 -0.67134,0.16369 l 0.30622,-0.5327 c 0.25188,-0.0586 0.46566,-0.067 0.56197,-0.067 0.39441,0 0.88512,0.1217 0.88512,0.72989 v 1.04846 c 0,0.10054 0.008,0.24729 0.0169,0.34396 z"
         style="fill:#00684b;fill-opacity:1;fill-rule:nonzero;stroke:none;stroke-width:0.352778" />
      <path
         id="path71"
         d="m 135.04149,159.54521 c -0.1845,0 -0.33126,-0.15064 -0.33126,-0.33549 0,-0.1845 0.14676,-0.33126 0.33126,-0.33126 0.1845,0 0.33126,0.14676 0.33126,0.33126 0,0.18873 -0.14252,0.33549 -0.33126,0.33549 m -0.33549,0.24342 h 0.67521 v 2.07186 H 134.706 Z"
         style="fill:#00684b;fill-opacity:1;fill-rule:nonzero;stroke:none;stroke-width:0.352778" />
      <path
         id="path72"
         d="m 135.76292,161.86039 v -2.07186 h 0.68368 v 0.4191 l 0.28928,-0.4191 c 0.15522,-0.0505 0.30621,-0.0547 0.36901,-0.0547 0.0212,0 0.0755,0 0.12594,0.0127 v 0.6671 c -0.14676,-0.1009 -0.28505,-0.17639 -0.46955,-0.17639 -0.16404,0 -0.26,0.0547 -0.31468,0.0878 v 1.53529 z"
         style="fill:#00684b;fill-opacity:1;fill-rule:nonzero;stroke:none;stroke-width:0.352778" />
      <path
         id="path73"
         d="m 138.8667,160.56425 c 0,-0.17604 -0.10901,-0.42369 -0.39864,-0.42369 -0.33972,0 -0.42333,0.3609 -0.42333,0.42369 z m -0.80962,0.36477 c 0.042,0.20567 0.15098,0.5327 0.72143,0.5327 0.12135,0 0.37747,-0.0166 0.67098,-0.13829 l -0.29739,0.51999 c -0.10936,0.0254 -0.31468,0.067 -0.59161,0.067 -0.10901,0 -0.54963,0 -0.86819,-0.26 -0.14252,-0.11712 -0.35666,-0.37747 -0.35666,-0.83008 0,-0.48225 0.2854,-1.08233 1.11125,-1.08233 0.4953,0 1.07386,0.23072 1.07386,1.12395 v 0.067 z"
         style="fill:#00684b;fill-opacity:1;fill-rule:nonzero;stroke:none;stroke-width:0.352778" />
      <path
         id="path74"
         d="m 133.99857,150.52769 h -3.28259 v -13.76116 h 3.28259 z"
         style="fill:#00684b;fill-opacity:1;fill-rule:nonzero;stroke:none;stroke-width:0.352778" />
      <path
         id="path75"
         d="m 120.97977,136.76663 v 5.71747 h -3.56129 v -5.71747 h -3.2826 v 13.76115 h 3.2826 v -5.86493 h 3.56129 v 5.86493 h 3.2826 v -13.76115 z"
         style="fill:#00684b;fill-opacity:1;fill-rule:nonzero;stroke:none;stroke-width:0.352778" />
      <path
         id="path76"
         d="m 104.32513,143.57355 h -1.03717 v -5.05001 h 0.92675 c 2.20768,0.0275 2.2352,1.54516 2.29059,2.56645 0.0275,0.91052 -0.35878,2.45604 -2.18017,2.48356 m -0.35877,-7.04603 h -3.88585 v 14.00034 h 3.20745 v -5.09552 c 3.96911,0.15522 6.28051,-1.2566 6.28051,-4.34235 0,-3.03565 -2.04223,-4.5533 -5.60211,-4.56247"
         style="fill:#00684b;fill-opacity:1;fill-rule:nonzero;stroke:none;stroke-width:0.352778" />
      <path
         id="path77"
         d="m 88.917531,150.60131 c 22.003099,5.51921 45.551369,3.09069 57.178569,-0.0734"
         style="fill:none;stroke:#00684b;stroke-width:1.10384;stroke-linecap:butt;stroke-linejoin:miter;stroke-miterlimit:4;stroke-dasharray:none;stroke-opacity:1" />
      <path
         id="path78"
         d="m 95.421271,168.00606 h -0.98461 v -5.16855 h 0.98461 z"
         style="fill:#b4d69d;fill-opacity:1;fill-rule:nonzero;stroke:none;stroke-width:0.352778" />
      <path
         id="path79"
         d="m 96.376341,165.11579 c 0,-0.27129 -0.007,-0.48048 -0.036,-0.67416 h 0.92674 c 0.0141,0.248 0.0141,0.3175 0.0215,0.5655 0.28963,-0.47272 0.63747,-0.66639 1.20897,-0.66639 0.72426,0 1.15112,0.44979 1.15112,1.22449 v 2.44087 h -0.91193 v -2.13078 c 0,-0.39546 -0.0289,-0.52705 -0.15946,-0.67416 -0.12312,-0.13194 -0.30409,-0.20955 -0.50659,-0.20955 -0.49248,0 -0.78211,0.35666 -0.78211,0.95321 v 2.06128 h -0.91228 z"
         style="fill:#b4d69d;fill-opacity:1;fill-rule:nonzero;stroke:none;stroke-width:0.352778" />
      <path
         id="path80"
         d="m 0,0 c 0,-1.164 0.41,-1.691 1.314,-1.691 0.245,0 0.697,0.044 1.108,0.132 V -3.316 C 1.211,-3.558 0.759,-3.625 0.123,-3.625 c -0.739,0 -1.498,0.286 -1.929,0.703 -0.493,0.506 -0.698,1.253 -0.698,2.637 v 5.184 h -2.114 v 1.888 h 2.114 V 8.392 L 0,9.776 V 6.787 H 2.401 V 4.899 H 0 Z"
         style="fill:#b4d69d;fill-opacity:1;fill-rule:nonzero;stroke:none"
         transform="matrix(0.35277776,0,0,-0.35277776,101.78372,166.83621)"
         clip-path="url(#clipPath81)" />
      <path
         id="path82"
         d="m 105.41077,165.82092 c 0,-0.56586 -0.23883,-0.87595 -0.67345,-0.87595 -0.44874,0 -0.69497,0.29457 -0.75989,0.87595 z m -1.46226,0.69744 c 0,0.61207 0.29668,0.9839 0.78175,0.9839 0.39088,0 0.6156,-0.21661 0.69497,-0.66605 h 0.8763 c -0.0219,0.75142 -0.64452,1.27036 -1.52047,1.27036 -1.12218,0 -1.7593,-0.65053 -1.7593,-1.80517 0,-1.20897 0.64417,-1.96074 1.68698,-1.96074 1.08585,0 1.66511,0.65123 1.66511,1.89089 v 0.18627 h -2.42534 z"
         style="fill:#b4d69d;fill-opacity:1;fill-rule:nonzero;stroke:none;stroke-width:0.352778" />
      <path
         id="path83"
         d="m 107.12559,165.47234 c 0,-0.29457 -0.0145,-0.65864 -0.0505,-1.03046 h 0.91193 c 0.0219,0.17004 0.0363,0.37959 0.0363,0.60395 0.23883,-0.51117 0.514,-0.65863 1.18039,-0.65863 v 0.81385 c -0.0871,-0.008 -0.17392,-0.0155 -0.23177,-0.0155 -0.6156,0 -0.93416,0.40287 -0.93416,1.1624 v 1.65806 h -0.91228 z"
         style="fill:#b4d69d;fill-opacity:1;fill-rule:nonzero;stroke:none;stroke-width:0.352778" />
      <path
         id="path84"
         d="m 109.80314,165.11579 c 0,-0.27129 -0.007,-0.48048 -0.036,-0.67416 h 0.92639 c 0.0145,0.248 0.0145,0.3175 0.0219,0.5655 0.28963,-0.47272 0.63712,-0.66639 1.20897,-0.66639 0.72426,0 1.15147,0.44979 1.15147,1.22449 v 2.44087 h -0.91228 v -2.13078 c 0,-0.39546 -0.0293,-0.52705 -0.15946,-0.67416 -0.12312,-0.13194 -0.30409,-0.20955 -0.50659,-0.20955 -0.49248,0 -0.78211,0.35666 -0.78211,0.95321 v 2.06128 h -0.91228 z"
         style="fill:#b4d69d;fill-opacity:1;fill-rule:nonzero;stroke:none;stroke-width:0.352778" />
      <path
         id="path85"
         d="m 115.9922,166.27812 c -0.0868,0.007 -0.12312,0.007 -0.17357,0.007 -0.79657,0 -1.0862,0.17886 -1.0862,0.65123 0,0.34113 0.20285,0.53481 0.55033,0.53481 0.38383,0 0.68051,-0.21731 0.75283,-0.54998 0.0363,-0.17075 0.0438,-0.28716 0.0438,-0.64347 z m 0.20285,1.72791 c -0.0434,-0.20144 -0.0579,-0.30974 -0.0653,-0.50377 -0.31855,0.43392 -0.63711,0.60431 -1.1437,0.60431 -0.69497,0 -1.17299,-0.44133 -1.17299,-1.09256 0,-0.66604 0.42722,-1.10031 1.1871,-1.22413 0.21731,-0.0307 0.49248,-0.0466 1.07915,-0.0621 v -0.13935 c 0,-0.48824 -0.1958,-0.7052 -0.62266,-0.7052 -0.40569,0 -0.5722,0.15522 -0.60819,0.56585 h -0.8837 c 0.0367,-0.76729 0.49247,-1.10843 1.44815,-1.10843 1.04987,0 1.55681,0.40323 1.55681,1.24778 v 1.38712 c 0,0.58879 0.0145,0.78246 0.0723,1.03047 z"
         style="fill:#b4d69d;fill-opacity:1;fill-rule:nonzero;stroke:none;stroke-width:0.352778" />
      <path
         id="path86"
         d="m 0,0 c 0,-1.164 0.411,-1.691 1.314,-1.691 0.245,0 0.696,0.044 1.107,0.132 v -1.757 c -1.21,-0.242 -1.662,-0.309 -2.298,-0.309 -0.739,0 -1.499,0.286 -1.93,0.703 -0.492,0.506 -0.697,1.253 -0.697,2.637 v 5.184 h -2.114 v 1.888 h 2.114 V 8.392 L 0,9.776 V 6.787 H 2.401 V 4.899 H 0 Z"
         style="fill:#b4d69d;fill-opacity:1;fill-rule:nonzero;stroke:none"
         transform="matrix(0.35277776,0,0,-0.35277776,119.10458,166.83621)"
         clip-path="url(#clipPath87)" />
      <path
         id="path88"
         d="m 121.42804,168.00606 h -0.91263 v -3.56411 h 0.91263 z m 0,-4.37832 h -0.91263 v -0.79023 h 0.91263 z"
         style="fill:#b4d69d;fill-opacity:1;fill-rule:nonzero;stroke:none;stroke-width:0.352778" />
      <path
         id="path89"
         d="m 123.1073,166.17747 c 0,0.81351 0.30374,1.27882 0.83291,1.27882 0.51364,0 0.78881,-0.41875 0.78881,-1.20897 0,-0.81351 -0.28963,-1.25554 -0.81774,-1.25554 -0.51435,0 -0.80398,0.42616 -0.80398,1.18569 m 2.55552,0.085 c 0,1.13171 -0.68756,1.84432 -1.79564,1.84432 -1.02799,0 -1.69368,-0.73625 -1.69368,-1.89053 0,-1.12395 0.70873,-1.87572 1.77341,-1.87572 1.03576,0 1.71591,0.76729 1.71591,1.92193"
         style="fill:#b4d69d;fill-opacity:1;fill-rule:nonzero;stroke:none;stroke-width:0.352778" />
      <path
         id="path90"
         d="m 126.41459,165.11579 c 0,-0.27129 -0.007,-0.48048 -0.0363,-0.67416 h 0.92675 c 0.0148,0.248 0.0148,0.3175 0.0219,0.5655 0.28963,-0.47272 0.63712,-0.66639 1.20933,-0.66639 0.7239,0 1.15111,0.44979 1.15111,1.22449 v 2.44087 h -0.91228 v -2.13078 c 0,-0.39546 -0.0293,-0.52705 -0.15946,-0.67416 -0.12312,-0.13194 -0.30409,-0.20955 -0.50659,-0.20955 -0.49248,0 -0.78211,0.35666 -0.78211,0.95321 v 2.06128 h -0.91228 z"
         style="fill:#b4d69d;fill-opacity:1;fill-rule:nonzero;stroke:none;stroke-width:0.352778" />
      <path
         id="path91"
         d="m 132.60401,166.27812 c -0.0871,0.007 -0.12312,0.007 -0.17392,0.007 -0.79622,0 -1.08585,0.17886 -1.08585,0.65123 0,0.34113 0.20285,0.53481 0.55033,0.53481 0.38347,0 0.68051,-0.21731 0.75283,-0.54998 0.036,-0.17075 0.0434,-0.28716 0.0434,-0.64347 z m 0.20249,1.72791 c -0.0434,-0.20144 -0.0579,-0.30974 -0.0653,-0.50377 -0.31856,0.43392 -0.63712,0.60431 -1.1437,0.60431 -0.69462,0 -1.17299,-0.44133 -1.17299,-1.09256 0,-0.66604 0.42757,-1.10031 1.18745,-1.22413 0.21731,-0.0307 0.49212,-0.0466 1.07879,-0.0621 v -0.13935 c 0,-0.48824 -0.19579,-0.7052 -0.62265,-0.7052 -0.40534,0 -0.57185,0.15522 -0.60819,0.56585 h -0.88335 c 0.0367,-0.76729 0.49247,-1.10843 1.44815,-1.10843 1.04987,0 1.5561,0.40323 1.5561,1.24778 v 1.38712 c 0,0.58879 0.0152,0.78246 0.073,1.03047 z"
         style="fill:#b4d69d;fill-opacity:1;fill-rule:nonzero;stroke:none;stroke-width:0.352778" />
      <path
         id="path92"
         d="m 135.37511,168.00606 h -0.91193 v -5.16855 h 0.91193 z"
         style="fill:#b4d69d;fill-opacity:1;fill-rule:nonzero;stroke:none;stroke-width:0.352778" />
      <path
         id="path93"
         d="m 138.51014,165.82092 c 0,-0.56586 -0.23883,-0.87595 -0.6731,-0.87595 -0.44909,0 -0.69568,0.29457 -0.76094,0.87595 z m -1.46262,0.69744 c 0,0.61207 0.29669,0.9839 0.78211,0.9839 0.39088,0 0.61525,-0.21661 0.69497,-0.66605 h 0.87595 c -0.0219,0.75142 -0.64452,1.27036 -1.52012,1.27036 -1.12254,0 -1.76001,-0.65053 -1.76001,-1.80517 0,-1.20897 0.64488,-1.96074 1.68734,-1.96074 1.08585,0 1.66511,0.65123 1.66511,1.89089 v 0.18627 h -2.42535 z"
         style="fill:#b4d69d;fill-opacity:1;fill-rule:nonzero;stroke:none;stroke-width:0.352778" />
    </g>
  </g>
</svg>
