<?xml version="1.0" encoding="UTF-8"?>
<svg id="Calque_2" data-name="Calque 2" xmlns="http://www.w3.org/2000/svg" viewBox="0 0 353.76 180.78">
  <defs>
    <style>
      .cls-1 {
        fill: #b5d59a;
      }

      .cls-2 {
        fill: #00674b;
      }
    </style>
  </defs>
  <g id="Calque_7" data-name="Calque 7">
    <g>
      <g>
        <g>
          <path class="cls-1" d="M175.38,0c-38.51,0-71.38,24.08-84.41,58,.32-.74,2.06-4.62,3.64-5.14,1.75-.58,7.74-5.91,7.82-6.57.08-.67,5.91-2.5,7.15.91,1.25,3.41,6.41-1.5,6.24-3.24s-.67-5.82-.67-5.82l9.57-.17s4.16-1.08,4.41-5.16c.25-4.08.25-6.24.25-6.24l5.91-.17.08-6.07s-5.66,4.41-8.65,5.07c-2.99.67-5.99,2-7.07,1.41s-.33-1.59-.33-1.59l2.84-1.31,1.5-2.72s2.94-1.26,3.58-2.52c.63-1.26,3.37-2.31,3.37-2.31,0,0,3.16-1.68,3.37-2.31s6.1,0,6.1,0l.84,2.1s2.94.21,3.58-.42,3.16-3.79,3.58-5.47c.42-1.68,1.68,1.05,1.05,3.16-.63,2.1-1.47,4.84-2.73,5.47-1.26.63-5.26.84-5.26.84,0,0-2.52,3.86-2.52,5.51s2.52-3.4,3.37-3.4,3.16-.63,4.21,1.05l.57-2.85s6.93-4.71,7.62-6.93c.69-2.22,0-3.37,0-3.37h-1.64c-.41,0-.64-.47-.38-.79,1.06-1.28,3.37-3.71,5.9-4.02,1.98-.24,3.05-.88,3.61-1.39.47-.43,1.06-.72,1.7-.75,4.06-.22,17.6-.87,20.18.07,2.76,1,7.92,1.67,11.13,3.12.56.25.97.73,1.16,1.31.27.8.78,1.9,1.56,2.08,1.25.28,3.19,0,3.46,1.66.25,1.51-3.7,1.99-6.4,1.96-.36,0-.57.39-.38.69.65,1.01,1.95,2.71,3.32,2.61.89-.06,1.69-.1,2.3-.12.66-.02,1.22.44,1.34,1.09.17.93.47,2.19.93,2.77,1.11,1.39,1.94.97,2.49,2.49.55,1.52,1.39,2.62,2.35,3.04.97.42,5.68.7,5.68.7,0,0,1.11.97-.83,1.52-1.94.55-4.85-1.39-6.51,0-.77.64-1.06,1.19-1.16,1.6-.1.44-.49.75-.95.75h-1.77c-.42,0,1.66,6.93-3.19,7.2s-2.91-4.02-1.66-4.16c.82-.09.62-1.13.39-1.84-.14-.42-.47-.73-.9-.84-1.82-.46-7.11-1.42-10.16,1.98,0,0-2,1.8-1.42,4.06.13.49-.03,1.01-.45,1.29-1.62,1.09-5.21,3.84-4.78,6.43.55,3.32-.83,4.57,2.91,6.23,0,0,.83.42,1.94,1.39s4.16,2.77,5.13-.83c.75-2.8-.84-4.68-1.58-5.38-.22-.21-.36-.5-.35-.81.05-1.64.37-6.72,2.34-6.84,2.35-.14,5.13,3.05,2.49,6.93,0,0-.42,2.22.28,2.35.52.1,5.96-.03,8.64-.1.63-.02,1.03.68.7,1.22l-.1.15c-.15.24-.39.39-.66.44-.97.16-3.37.83-4.57,3.55-1.52,3.46-1.94,4.29-4.43,5.13-2.49.83-4.71.55-6.37,2.35-1.66,1.8-4.71,0-4.71,0l.44-3.76c.06-.5-.35-.92-.85-.89h-.19c-.51.05-.9.46-.9.97,0,2.06-.43,6.74-4.7,3.74-.87-.61-1.58-1.43-2.14-2.34-1.29-2.1-3.97-6.31-4.7-6.31-.97,0,2.91-2.22,2.91-3.19s-5.82-5.4-7.62-2.08c-1.8,3.32,2.93,6.79,2.93,6.79v10.67h-3.76l.28-8.87s-2.08-3.6-3.46-3.46.28,5.96-.55,6.37c-.83.42-3.88,1.39-3.6,2.35s4.85,4.71,4.85,4.71l1.8,13.71-6.1.55s-10.94,9.28-4.16,13.71c6.79,4.43,14.71-1.8,14.71-1.8l-.85,8.87s-8.17-.28-9.28,0-21.75,7.48-23.27,14.68c-1.52,7.2-1.25,7.62-1.94,10.11-.69,2.49-3.6,4.71-3.32,5.68.28.97,9.28,1.52,9.28,4.43s.14,7.34.14,7.34l5.99.81c.77.1,1.45.55,1.85,1.21l1.72,2.83s28.47,2.35,28.92,4.29-1.01,5.82,0,6.65c.49.41,1.37.91,2.14,1.32.9.48,1.42,1.46,1.32,2.48-.32,3.16-.89,9.63-.37,10.46.69,1.11,3.46,5.82,3.46,5.82,0,0-31.31-1.52-37.82-4.02,0,0-19.28-7.56-23.23-11.95l-5.24-4.55-4.78-4.65-8.41-8.98c16.47,22.23,43.15,36.99,72.94,36.99,49.92,0,90.39-40.47,90.39-90.39S225.3,0,175.38,0ZM173.41,98.59l1.29-6.03s3.62.4,4.18-.16c.24-.24.56-.77.84-1.29.34-.63-.1-1.39-.81-1.41l-3.09-.11.24-6.92s2.9-.97,3.46,0c.56.97,1.29,5.31,2.49,5.71,1.21.4,6.19,4.26,7.56,4.18,1.37-.08-4.5-8.77-4.5-8.77,0,0-1.53-3.14.16-3.06,1.69.08,8.77,6.6,9.09,8.29.32,1.69,2.33,5.39,3.54,5.63,1.21.24,4.83,3.3,4.83,3.3l-20.67,2.09-8.61-1.45ZM199.15,112.43c-9.98,1.93-8.93-4.99-8.93-4.99l15.04-2.17s3.86,5.23-6.11,7.16ZM257.7,122.69s-14.95,27.4-19.1,28.01c0,0-.95.69-1.73-.69-.78-1.38-2.33-3.63-3.63-1.04,0,0,.78,5.27-1.38,6.31s-4.58,2.51-5.45,4.93c-.86,2.42-9.42,3.11-9.42,3.11,0,0,3.37-5.27,3.54-6.92s5.1-17.2,17.11-23.6c0,0,3.54-3.12,3.11-6.49-.43-3.37-8.21,3.89-8.21,3.89,0,0-.78,1.56-3.37-.61-2.59-2.16-7.17-2.77-7.09-9.59.09-6.83-7.17-7.25-7.17-7.25l.95-8.05s6.74,3.72,9.51,7.26c2.77,3.54,5.96,10.11,6.4,11.93.43,1.82,7.35-3.8,7.35-3.8,0,0,2.51-7.87,6.92-9.34,4.41-1.47,1.21-7.17.09-8.3-.28-.28-.63-.49-.98-.65-1.04-.47-2.22.36-2.22,1.51v1.48s-9.42.61-8.38-5.53c0,0-.43-1.21,1.9-1.73s8.13,0,8.13,0c0,0,2.59-.69,3.11-1.73s13.23-.86,13.23-.86l-.52,22.21-2.68,5.53Z"/>
          <path class="cls-1" d="M102.69,140.4h5.4l-.42-4.43s-5.82-8.59-9.56-8.45v-3.6s-3.05-3.82-5.26-2.91l-1.11-15.65-4.64-4.16,1.54-30.83,2.26-12.19c-3.82,10.01-5.92,20.87-5.92,32.22,0,20.13,6.58,38.71,17.7,53.73v-3.72Z"/>
        </g>
        <path class="cls-1" d="M143.71,33.85c-.48-.74-.38-1.72-.09-2.55.61-1.73,1.39-3.34,2.87-4.42s3.17-2.44,4.73-3.41c3.39-2.11,6.83-4.16,9.06-7.47.89-1.33,1.15-3.34,2.38-4.37s4.02-1.78,5.43-1.03c.72.38,1.89,1.65,2.59,2.06,1.03.6,1.32.34,2.51.25,1.27-.1,3.71.81,4.24,2.1.54,1.32-.15,3.68-1.07,4.77s-2.16,2.38-3,3.54c-1.01,1.38-1.77,2.05-3.13,3.08-1.12.86-3.17.82-4.57,1-4.9.61-9.65,2.48-13.66,5.37-1.31.94-2.7,2.01-4.37,2.11-1.27.08-3.11.2-3.91-1.02Z"/>
        <path class="cls-1" d="M160.44,37.61c.35.4.92.5,1.44.58,2.12.32,5.48,1.44,7.3.4.27-.16.97-.78,1.09-1.04.22-.49.16-1.27-1.09-1.48-.53-.09-2.1,0-2.55-.28-.91-.58-.95-1.99-1.83-2.62-2.18-1.54-6.13,2.39-4.36,4.43Z"/>
        <path class="cls-1" d="M117.31,47.53c-.03-1.48.36-3.02,1.3-4.16s2.49-1.84,3.95-1.57c.46.09.92.28,1.23.63s.44.89.22,1.31c-.34.67-1.28.71-1.93,1.09-1.07.62-1.26,2.06-1.26,3.29s0,2.63-.9,3.47c-2.11,1.97-2.58-2.85-2.61-4.06Z"/>
      </g>
      <polygon class="cls-2" points="157.45 60.28 177.1 60.28 177.1 95.63 199.13 95.63 199.13 60.28 219.1 60.28 219.1 144.03 199.45 144.03 199.13 108.46 176.95 108.62 177.1 144.03 157.45 144.03 157.45 60.28"/>
      <polygon class="cls-2" points="259.04 60.28 278.69 60.28 279.33 144.03 259.04 144.03 259.04 60.28"/>
      <path class="cls-2" d="M168.9,170.85C80.53,170.85.83,149.69,0,149.47l2.66-9.9c.86.23,87.17,23.14,179.07,20.87,92.08-2.26,168.84-20.72,169.6-20.9l2.43,9.96c-.78.19-78.54,18.91-171.78,21.19-4.37.11-8.74.16-13.08.16Z"/>
      <path class="cls-2" d="M130.63,74.73c-5.6-18.41-27.42-17.01-27.42-17.01h-29.22v84.66h19.61v-30.82l15.41-.6c17.61-1.2,27.22-17.81,21.62-36.23ZM107.75,97.78s-1.31,1.39-5.85,1.99c-4.54.6-8.64,0-8.64,0v-30.75s12.74-2.22,16.95,4.54c4.21,6.76,3.74,19.67-2.46,24.22Z"/>
    </g>
  </g>
</svg>