<?xml version="1.0" encoding="UTF-8"?>
<svg id="Calque_2" data-name="Calque 2" xmlns="http://www.w3.org/2000/svg" viewBox="0 0 353.76 252.45">
  <defs>
    <style>
      .cls-1 {
        fill: #fff;
      }

      .cls-2 {
        fill: none;
        stroke: #fff;
        stroke-miterlimit: 10;
        stroke-width: 3px;
      }
    </style>
  </defs>
  <g id="typo_2" data-name="typo 2">
    <g>
      <g>
        <g>
          <path class="cls-1" d="M178.91,89.66l-1.8-.06v3.06c.81,0,1.54-.06,1.77-.3.25-.25.56-.78.86-1.29.33-.62-.11-1.38-.82-1.41ZM175.38,0c-38.35,0-71.11,23.89-84.2,57.6.58-1.24,2.07-4.29,3.47-4.76,1.74-.59,7.73-5.91,7.82-6.58.08-.65,5.89-2.49,7.15.92,1.24,3.4,6.39-1.49,6.23-3.23-.17-1.76-.67-5.83-.67-5.83l9.56-.16s4.15-1.09,4.4-5.16c.26-4.07.26-6.23.26-6.23l5.89-.17.09-6.06s-5.66,4.4-8.66,5.07c-2.98.67-5.99,1.99-7.06,1.41-1.09-.59-.33-1.59-.33-1.59l2.84-1.32,1.49-2.72s2.94-1.26,3.58-2.52c.62-1.26,3.36-2.32,3.36-2.32,0,0,3.16-1.68,3.37-2.32.2-.62,6.09,0,6.09,0l.84,2.11s2.94.2,3.58-.42c.62-.64,3.16-3.79,3.58-5.47s1.68,1.06,1.04,3.16c-.62,2.1-1.46,4.83-2.72,5.46-1.27.64-5.27.86-5.27.86,0,0-2.52,3.86-2.52,5.5s2.52-3.4,3.37-3.4,3.14-.64,4.2,1.04l.58-2.84s6.92-4.71,7.62-6.92c.68-2.22,0-3.37,0-3.37h-1.65c-.42,0-.64-.47-.37-.78,1.06-1.29,3.36-3.72,5.89-4.03,1.97-.23,3.05-.87,3.61-1.38.47-.44,1.06-.72,1.69-.76,4.06-.22,17.6-.87,20.18.08,2.75.99,7.91,1.66,11.12,3.12.56.25.96.73,1.17,1.31.26.79.78,1.9,1.55,2.07,1.24.28,3.19,0,3.47,1.66.25,1.51-3.7,1.99-6.41,1.96-.36,0-.56.39-.37.7.64.99,1.94,2.71,3.31,2.61.89-.08,1.69-.11,2.3-.12.65-.02,1.23.44,1.34,1.09.17.93.47,2.19.93,2.77,1.1,1.38,1.94.96,2.5,2.49.54,1.52,1.38,2.61,2.35,3.05.96.42,5.67.7,5.67.7,0,0,1.1.96-.82,1.52-1.94.54-4.85-1.38-6.51,0-.76.64-1.06,1.18-1.15,1.6-.11.44-.5.75-.95.75h-1.77c-.42,0,1.66,6.92-3.19,7.2-4.85.28-2.91-4.01-1.66-4.15.81-.09.62-1.13.39-1.83-.14-.42-.47-.73-.89-.84-1.83-.45-7.1-1.41-10.17,1.99,0,0-2.01,1.79-1.41,4.06.12.48-.03.99-.45,1.27-1.62,1.1-5.21,3.84-4.77,6.44.54,3.31-.84,4.57,2.91,6.22,0,0,.82.42,1.93,1.38,1.12.98,4.17,2.78,5.13-.82.75-2.8-.84-4.68-1.59-5.38-.22-.2-.36-.5-.34-.81.05-1.63.37-6.72,2.35-6.82,2.35-.14,5.11,3.05,2.49,6.92,0,0-.42,2.22.28,2.36.51.09,5.95-.03,8.63-.11.64-.02,1.04.68.7,1.23l-.09.14c-.14.25-.39.4-.65.45-.98.16-3.37.82-4.57,3.54-1.52,3.47-1.94,4.29-4.43,5.13-2.49.82-4.71.54-6.37,2.35-1.66,1.8-4.69,0-4.69,0l.44-3.76c.06-.48-.34-.92-.84-.89l-.2.02c-.5.03-.89.45-.89.95,0,1.6-.26,4.77-2.36,4.73v21.27c.89-.19,2.08-.31,2.43.28.56.96,1.27,5.32,2.49,5.71,1.21.4,6.19,4.28,7.56,4.18,1.37-.08-4.51-8.75-4.51-8.75,0,0-1.52-3.14.17-3.06,1.68.08,8.77,6.59,9.08,8.29.33,1.68,2.33,5.38,3.54,5.63.3.05.76.3,1.26.61v-34.96h19.96v46.39c2.11,1.4,4.77,3.37,6.27,5.29,2.77,3.54,5.95,10.11,6.39,11.92.44,1.82,7.35-3.81,7.35-3.81,0,0,2.5-7.85,6.9-9.33,4.42-1.46,1.21-7.17.09-8.29-.28-.3-.62-.5-.98-.65-1.04-.47-2.22.36-2.22,1.49v1.49s-9.42.61-8.38-5.53c0,0-.44-1.21,1.9-1.73,2.33-.53,8.13,0,8.13,0,0,0,2.6-.7,3.11-1.73.39-.79,7.84-.89,11.36-.89v-34.64h1.59C248.2,25.15,214.73,0,175.38,0ZM238.56,150.64s-.95.68-1.73-.7c-.78-1.38-2.33-3.62-3.62-1.03,0,0,.78,5.27-1.38,6.3-2.16,1.04-4.59,2.5-5.44,4.93-.87,2.43-9.42,3.11-9.42,3.11,0,0,3.37-5.27,3.54-6.92.17-1.63,5.1-17.18,17.1-23.58,0,0,3.54-3.11,3.11-6.48-.44-3.36-8.21,3.9-8.21,3.9,0,0-.78,1.55-3.36-.61-2.6-2.16-7.18-2.77-7.09-9.59.03-3.05-1.38-4.82-2.98-5.83v29.83h-19.64l-.3-31.59c-7.45,1.43-8.75-2.05-8.94-3.9l-13.26.09.16,35.4h-19.65v-44.31c-.68.02-1.2.05-1.43.11-1.1.28-21.73,7.48-23.26,14.68-1.52,7.2-1.24,7.62-1.94,10.11-.68,2.5-3.59,4.71-3.31,5.67.28.98,9.27,1.52,9.27,4.43s.14,7.34.14,7.34l5.99.81c.78.11,1.45.56,1.85,1.21l1.73,2.83s28.45,2.36,28.9,4.29c.45,1.94-1.01,5.81,0,6.65.5.4,1.37.9,2.13,1.32.92.48,1.43,1.46,1.32,2.47-.31,3.17-.89,9.64-.37,10.46.7,1.1,3.47,5.81,3.47,5.81,0,0-31.29-1.52-37.81-4.01,0,0-19.26-7.56-23.21-11.96l-5.24-4.54-4.77-4.65-8.18-8.74-.16-.16c.05.08.11.16.16.22,16.46,22.04,43.03,36.67,72.66,36.67,37.78,0,70.13-23.18,83.62-56.09v-4.74l-1.34,2.77s-14.96,27.39-19.11,28ZM178.91,89.66l-1.8-.06v3.06c.81,0,1.54-.06,1.77-.3.25-.25.56-.78.86-1.29.33-.62-.11-1.38-.82-1.41ZM174.99,60.26c-.06-.05-.14-.11-.22-.16-.87-.61-1.59-1.43-2.15-2.33-1.29-2.11-3.96-6.31-4.69-6.31-.96,0,2.91-2.22,2.91-3.19s-5.81-5.39-7.6-2.08c-1.8,3.33,2.92,6.79,2.92,6.79v7.28h8.83ZM159.22,51.32c-1.38.14.28,5.95-.54,6.37-.84.4-3.89,1.38-3.61,2.35.14.47,1.26,1.57,2.39,2.6v-2.38h5.05l.17-5.49s-2.08-3.59-3.47-3.45ZM155.62,79.01s-10.94,9.28-4.15,13.71c1.97,1.29,4.04,1.68,5.99,1.57v-15.45l-1.83.17Z"/>
          <path class="cls-1" d="M88.75,112.38c2.26,19.96,4.24,16.48,13.98,31.69v-3.72h5.4l-.42-4.43s-5.82-8.58-9.55-8.45v-2.2c0-.94-.3-1.85-.88-2.6-1.33-1.73-3.87-4.63-5.45-3.98l-3.09-6.31Z"/>
        </g>
        <path class="cls-1" d="M143.73,33.84c-.48-.74-.38-1.71-.09-2.54.61-1.73,1.39-3.34,2.87-4.42s3.17-2.44,4.73-3.41c3.39-2.11,6.83-4.16,9.05-7.47.89-1.33,1.15-3.34,2.38-4.37s4.01-1.78,5.43-1.03c.72.38,1.89,1.65,2.59,2.06,1.03.6,1.32.34,2.51.25,1.27-.1,3.71.81,4.23,2.1.54,1.32-.15,3.68-1.07,4.77s-2.16,2.38-3,3.53c-1.01,1.38-1.77,2.05-3.12,3.08-1.12.86-3.17.82-4.57,1-4.9.61-9.64,2.48-13.65,5.36-1.31.94-2.69,2.01-4.37,2.11-1.27.08-3.11.2-3.91-1.02Z"/>
        <path class="cls-1" d="M160.45,37.6c.35.4.92.5,1.44.58,2.12.32,5.48,1.44,7.3.4.27-.16.97-.78,1.09-1.04.22-.49.16-1.27-1.09-1.48-.53-.09-2.1,0-2.55-.28-.91-.58-.95-1.99-1.83-2.61-2.18-1.54-6.13,2.39-4.36,4.43Z"/>
        <path class="cls-1" d="M117.34,47.51c-.03-1.48.36-3.02,1.3-4.16s2.49-1.84,3.94-1.57c.46.09.92.28,1.23.63s.44.89.22,1.31c-.34.67-1.28.71-1.93,1.09-1.07.62-1.26,2.06-1.26,3.29s0,2.63-.9,3.47c-2.11,1.97-2.58-2.84-2.61-4.06Z"/>
      </g>
      <polygon class="cls-1" points="178.67 145.53 155.9 145.53 155.9 99.67 159.01 99.67 159.01 142.42 175.55 142.42 175.39 107.03 190.2 106.93 190.23 110.04 178.51 110.12 178.67 145.53"/>
      <rect class="cls-1" x="155.9" y="78.84" width="3.11" height="15.45"/>
      <path class="cls-1" d="M178.66,82.35h-3.11v-20.04c-.33-.13-.67-.29-1.01-.5h-8.38v-3.11h9.31l.39.26c.73.49,1.15.56,1.29.56l1.51.04v22.78Z"/>
      <rect class="cls-1" x="175.55" y="89.59" width="3.11" height="3.06"/>
      <polygon class="cls-1" points="159.01 62.64 155.9 62.64 155.9 58.7 162.51 58.7 162.51 61.81 159.01 61.81 159.01 62.64"/>
      <polygon class="cls-1" points="220.64 106.65 217.53 106.65 217.53 61.81 200.68 61.81 200.68 95.22 197.57 95.22 197.57 58.7 220.64 58.7 220.64 106.65"/>
      <polygon class="cls-1" points="220.64 145.53 197.91 145.53 197.6 112.4 200.71 112.37 200.99 142.42 217.53 142.42 217.53 114.14 220.64 114.14 220.64 145.53"/>
      <rect class="cls-1" x="155.9" y="62.64" width="3.11" height="16.2"/>
      <rect class="cls-1" x="155.9" y="94.29" width="3.11" height="5.38"/>
      <rect class="cls-1" x="162.51" y="58.7" width="3.65" height="3.11"/>
      <path class="cls-1" d="M178.66,62.68l-1.6-.05c-.92-.03-1.9-.39-2.94-1.09l-4.23-2.84h8.76v3.98Z"/>
      <rect class="cls-1" x="175.55" y="82.35" width="3.11" height="7.24"/>
      <polygon class="cls-1" points="200.68 97.15 175.55 97.15 175.55 92.66 178.66 92.66 178.66 94.04 199.12 94.04 199.12 95.22 200.68 95.22 200.68 97.15"/>
      <polygon class="cls-1" points="197.6 112.4 197.58 109.99 190.23 110.04 190.2 106.93 200.67 106.85 200.71 112.37 197.6 112.4"/>
      <rect class="cls-1" x="217.53" y="106.65" width="3.11" height="7.49"/>
      <rect class="cls-1" x="257.45" y="119.88" width="3.11" height="4.74"/>
      <polygon class="cls-1" points="260.56 94.89 257.45 94.89 257.45 58.7 260.59 58.7 260.56 94.89"/>
      <rect class="cls-1" x="257.45" y="94.89" width="3.11" height="24.98"/>
      <polygon class="cls-1" points="280.85 145.53 257.45 145.53 257.45 124.62 260.56 124.62 260.56 142.42 277.71 142.42 277.11 61.81 260.59 61.81 260.59 58.7 280.2 58.7 280.85 145.53"/>
      <path class="cls-2" d="M127.19,76.36c-5.61-18.41-27.41-17.01-27.41-17.01h-29.21v84.62h19.6v-30.81l15.41-.59c17.6-1.2,27.21-17.82,21.61-36.21ZM105.01,99.67s-1.31,1.38-5.85,1.99c-4.54.59-8.63,0-8.63,0v-30.74s12.73-2.22,16.93,4.54c4.21,6.75,3.75,19.67-2.46,24.21Z"/>
      <path class="cls-1" d="M168.91,171.1C80.54,171.1.83,149.94,0,149.72l2.83-10.51c.86.23,87.09,23.1,178.9,20.85,92.01-2.25,168.7-20.7,169.46-20.89l2.58,10.57c-.78.19-78.54,18.91-171.77,21.19-4.37.11-8.74.16-13.08.16Z"/>
      <g>
        <path class="cls-1" d="M36.69,251.95v-32.82h5.23v32.82h-5.23Z"/>
        <path class="cls-1" d="M63.71,251.95v-12.44c0-.91-.04-1.78-.11-2.63-.07-.85-.25-1.6-.55-2.25-.3-.65-.74-1.17-1.33-1.57-.59-.39-1.41-.59-2.45-.59-1.13,0-2.03.27-2.72.82-.69.55-1.22,1.23-1.58,2.07-.37.83-.61,1.74-.74,2.72-.13.98-.19,1.91-.19,2.79v11.08h-4.9v-17.84c0-.85-.01-1.69-.04-2.52-.03-.83-.06-1.67-.09-2.52h4.86l.08,3.45c.9-1.27,1.9-2.22,3-2.84,1.1-.62,2.42-.93,3.97-.93,2.7,0,4.66.76,5.87,2.29s1.82,3.67,1.82,6.42v14.48h-4.9Z"/>
        <path class="cls-1" d="M84.21,252.13c-.63.06-1.27.09-1.92.09-1.91,0-3.38-.4-4.41-1.21-1.03-.8-1.54-2.3-1.54-4.48v-13.97h-4.1v-3.54h4.1v-4.13l4.9-2.13v6.26h4.85v3.54h-4.85v12.02c0,.67.03,1.24.08,1.71.06.47.18.86.36,1.18.18.32.47.55.87.71.39.15.93.23,1.6.23.34,0,.66-.02.97-.07s.66-.1,1.06-.16v3.72c-.67.09-1.33.17-1.96.23Z"/>
        <path class="cls-1" d="M93.64,241.56v.36c0,.97.11,1.88.34,2.75.23.86.58,1.63,1.06,2.29.48.67,1.07,1.2,1.78,1.59.71.39,1.55.59,2.54.59,1.38,0,2.51-.41,3.39-1.23s1.41-1.98,1.61-3.5h4.73c-.2,1.42-.59,2.64-1.18,3.65-.59,1.01-1.33,1.85-2.22,2.5-.89.65-1.89,1.13-3,1.43-1.11.3-2.27.45-3.48.45-1.69,0-3.18-.27-4.47-.82-1.3-.54-2.38-1.32-3.25-2.34-.87-1.01-1.53-2.23-1.96-3.65-.44-1.42-.65-3.01-.65-4.77s.22-3.43.65-4.95c.44-1.51,1.1-2.81,1.98-3.9.89-1.09,1.99-1.94,3.31-2.56,1.32-.62,2.87-.93,4.64-.93,1.88,0,3.45.35,4.71,1.04,1.25.7,2.25,1.63,3,2.81.75,1.18,1.27,2.56,1.56,4.13.3,1.57.44,3.25.44,5.04h-15.54ZM104.4,238.34c0-.85-.1-1.68-.3-2.47-.2-.79-.5-1.49-.91-2.08-.41-.59-.93-1.07-1.57-1.42-.64-.35-1.39-.53-2.27-.53s-1.65.18-2.31.53c-.66.35-1.23.82-1.7,1.42-.47.59-.83,1.29-1.08,2.08s-.42,1.62-.51,2.47h10.64Z"/>
        <path class="cls-1" d="M125.62,233.57c-.3-.03-.6-.05-.91-.05-2.08,0-3.55.6-4.39,1.79-.84,1.2-1.27,2.85-1.27,4.97v11.67h-4.9v-17.54c0-.56,0-1.15-.02-1.77s-.03-1.24-.04-1.86c-.01-.62-.04-1.19-.06-1.7h4.77l.13,3.77c1.41-2.63,3.57-3.95,6.5-3.95.17,0,.34,0,.53.02.18.02.39.04.61.07v4.72c-.34-.06-.65-.11-.95-.14Z"/>
        <path class="cls-1" d="M144.85,251.95v-12.44c0-.91-.04-1.78-.11-2.63-.07-.85-.25-1.6-.55-2.25-.3-.65-.74-1.17-1.33-1.57-.59-.39-1.41-.59-2.45-.59-1.13,0-2.03.27-2.72.82-.69.55-1.22,1.23-1.58,2.07-.37.83-.61,1.74-.74,2.72-.13.98-.19,1.91-.19,2.79v11.08h-4.9v-17.84c0-.85-.01-1.69-.04-2.52-.03-.83-.06-1.67-.09-2.52h4.86l.08,3.45c.9-1.27,1.9-2.22,3-2.84,1.1-.62,2.42-.93,3.97-.93,2.7,0,4.66.76,5.87,2.29s1.82,3.67,1.82,6.42v14.48h-4.9Z"/>
        <path class="cls-1" d="M169.37,251.95c-.08-.55-.15-1.07-.19-1.59-.04-.51-.09-1.03-.15-1.54-.87,1.36-1.88,2.31-3.02,2.84-1.14.53-2.47.79-3.99.79-1.01,0-1.98-.14-2.89-.43-.91-.29-1.71-.71-2.39-1.27-.67-.56-1.22-1.28-1.63-2.16-.41-.88-.61-1.91-.61-3.09,0-1.3.23-2.4.7-3.29.46-.89,1.08-1.62,1.86-2.18.77-.56,1.66-1,2.66-1.32,1-.32,2.03-.55,3.08-.68,1.06-.14,2.1-.21,3.12-.23,1.03-.02,1.98-.02,2.85-.02v-1.18c0-1.57-.29-2.8-.86-3.68s-1.64-1.32-3.21-1.32c-1.26,0-2.2.31-2.81.93-.62.62-.97,1.61-1.05,2.97h-4.77c0-1.36.25-2.49.74-3.38.49-.89,1.14-1.61,1.94-2.16.8-.55,1.7-.93,2.7-1.16s2.03-.34,3.1-.34c1.41,0,2.67.14,3.78.41,1.11.27,2.05.74,2.83,1.41.77.67,1.36,1.56,1.77,2.68.41,1.12.61,2.53.61,4.22v6.76c0,1.33.03,2.66.11,3.97.07,1.32.18,2.66.32,4.02h-4.6ZM168.82,240.65c-.31-.03-.6-.05-.88-.05h-.84c-.76,0-1.58.05-2.46.16-.88.11-1.72.32-2.5.64-.78.32-1.44.79-1.95,1.41s-.78,1.45-.78,2.47c0,.61.11,1.15.34,1.63.22.49.53.89.9,1.23.38.33.82.58,1.32.75s1.02.25,1.56.25c1.18,0,2.11-.25,2.79-.75s1.22-1.15,1.6-1.95c.38-.8.62-1.71.74-2.72s.17-2.04.17-3.06Z"/>
        <path class="cls-1" d="M189.15,252.13c-.63.06-1.27.09-1.92.09-1.91,0-3.38-.4-4.41-1.21-1.03-.8-1.54-2.3-1.54-4.48v-13.97h-4.1v-3.54h4.1v-4.13l4.9-2.13v6.26h4.85v3.54h-4.85v12.02c0,.67.03,1.24.08,1.71.06.47.18.86.36,1.18.18.32.47.55.87.71.39.15.93.23,1.6.23.34,0,.66-.02.97-.07s.66-.1,1.06-.16v3.72c-.67.09-1.33.17-1.96.23Z"/>
        <path class="cls-1" d="M195.17,223.81v-4.68h5.23v4.68h-5.23ZM195.34,251.95v-22.92h4.9v22.92h-4.9Z"/>
        <path class="cls-1" d="M227.25,240.38c0,1.79-.25,3.42-.76,4.9-.51,1.48-1.24,2.75-2.2,3.81-.96,1.06-2.12,1.88-3.48,2.47-1.37.59-2.89.89-4.58.89s-3.29-.29-4.64-.86c-1.35-.57-2.51-1.39-3.46-2.45s-1.68-2.33-2.17-3.81c-.49-1.48-.74-3.13-.74-4.95s.26-3.45.78-4.9c.52-1.45,1.27-2.7,2.24-3.74s2.14-1.85,3.5-2.41,2.89-.84,4.58-.84,3.25.28,4.6.84,2.5,1.35,3.44,2.38c.94,1.03,1.66,2.28,2.15,3.74.49,1.47.74,3.11.74,4.93ZM222.14,240.42c0-1.03-.1-2.05-.3-3.06-.2-1.01-.53-1.92-.99-2.72-.46-.8-1.08-1.45-1.84-1.95-.76-.5-1.69-.75-2.79-.75s-2.03.25-2.79.75c-.76.5-1.37,1.15-1.84,1.95-.46.8-.8,1.71-.99,2.72-.2,1.01-.3,2.04-.3,3.06s.1,2.02.3,3.06c.2,1.04.53,1.98.99,2.81.46.83,1.08,1.51,1.84,2.04.76.53,1.69.79,2.79.79s2.02-.26,2.77-.79c.74-.53,1.35-1.22,1.82-2.07.46-.85.8-1.79,1.01-2.81s.32-2.04.32-3.04Z"/>
        <path class="cls-1" d="M246.79,251.95v-12.44c0-.91-.04-1.78-.11-2.63-.07-.85-.25-1.6-.55-2.25-.3-.65-.74-1.17-1.33-1.57-.59-.39-1.41-.59-2.45-.59-1.13,0-2.03.27-2.72.82-.69.55-1.22,1.23-1.58,2.07-.37.83-.61,1.74-.74,2.72-.13.98-.19,1.91-.19,2.79v11.08h-4.9v-17.84c0-.85-.01-1.69-.04-2.52-.03-.83-.06-1.67-.09-2.52h4.86l.08,3.45c.9-1.27,1.9-2.22,3-2.84,1.1-.62,2.42-.93,3.97-.93,2.7,0,4.66.76,5.87,2.29s1.82,3.67,1.82,6.42v14.48h-4.9Z"/>
        <path class="cls-1" d="M271.32,251.95c-.08-.55-.15-1.07-.19-1.59-.04-.51-.09-1.03-.15-1.54-.87,1.36-1.88,2.31-3.02,2.84-1.14.53-2.47.79-3.99.79-1.01,0-1.98-.14-2.89-.43-.91-.29-1.71-.71-2.39-1.27-.67-.56-1.22-1.28-1.63-2.16-.41-.88-.61-1.91-.61-3.09,0-1.3.23-2.4.7-3.29.46-.89,1.08-1.62,1.86-2.18.77-.56,1.66-1,2.66-1.32,1-.32,2.03-.55,3.08-.68,1.06-.14,2.1-.21,3.12-.23,1.03-.02,1.98-.02,2.85-.02v-1.18c0-1.57-.29-2.8-.86-3.68s-1.64-1.32-3.21-1.32c-1.26,0-2.2.31-2.81.93-.62.62-.97,1.61-1.05,2.97h-4.77c0-1.36.25-2.49.74-3.38.49-.89,1.14-1.61,1.94-2.16.8-.55,1.7-.93,2.7-1.16s2.03-.34,3.1-.34c1.41,0,2.67.14,3.78.41,1.11.27,2.05.74,2.83,1.41.77.67,1.36,1.56,1.77,2.68.41,1.12.61,2.53.61,4.22v6.76c0,1.33.03,2.66.11,3.97.07,1.32.18,2.66.32,4.02h-4.6ZM270.77,240.65c-.31-.03-.6-.05-.88-.05h-.84c-.76,0-1.58.05-2.46.16-.88.11-1.72.32-2.5.64-.78.32-1.44.79-1.95,1.41s-.78,1.45-.78,2.47c0,.61.11,1.15.34,1.63.22.49.53.89.9,1.23.38.33.82.58,1.32.75s1.02.25,1.56.25c1.18,0,2.11-.25,2.79-.75s1.22-1.15,1.6-1.95c.38-.8.62-1.71.74-2.72s.17-2.04.17-3.06Z"/>
        <path class="cls-1" d="M281.87,251.95v-32.82h4.9v32.82h-4.9Z"/>
        <path class="cls-1" d="M296.52,241.56v.36c0,.97.11,1.88.34,2.75.23.86.58,1.63,1.06,2.29.48.67,1.07,1.2,1.78,1.59.71.39,1.55.59,2.54.59,1.38,0,2.51-.41,3.39-1.23s1.41-1.98,1.61-3.5h4.73c-.2,1.42-.59,2.64-1.18,3.65-.59,1.01-1.33,1.85-2.22,2.5-.89.65-1.89,1.13-3,1.43-1.11.3-2.27.45-3.48.45-1.69,0-3.18-.27-4.48-.82-1.3-.54-2.38-1.32-3.25-2.34-.87-1.01-1.53-2.23-1.96-3.65-.44-1.42-.65-3.01-.65-4.77s.22-3.43.65-4.95c.44-1.51,1.1-2.81,1.98-3.9.89-1.09,1.99-1.94,3.31-2.56,1.32-.62,2.87-.93,4.64-.93,1.89,0,3.46.35,4.71,1.04,1.25.7,2.25,1.63,3,2.81s1.27,2.56,1.56,4.13.44,3.25.44,5.04h-15.54ZM307.29,238.34c0-.85-.1-1.68-.3-2.47-.2-.79-.5-1.49-.91-2.08s-.93-1.07-1.57-1.42c-.64-.35-1.39-.53-2.27-.53s-1.65.18-2.31.53c-.66.35-1.23.82-1.7,1.42s-.83,1.29-1.08,2.08c-.26.79-.43,1.62-.51,2.47h10.64Z"/>
      </g>
      <g>
        <path class="cls-1" d="M40.32,213.96h-3.61v-18.29h6.29c1.45,0,2.52.05,3.72.57,2.13.91,3.2,2.85,3.2,4.64,0,1.42-.68,3.21-2.49,4.35-1.81,1.14-4.08,1.19-5.47,1.19h-1.64v7.54ZM40.32,206.06l1.59-2.07c.68,0,2.02,0,3.04-.65.74-.49,1.26-1.35,1.26-2.36,0-2.02-1.67-2.8-3.26-2.8h-2.63v7.87Z"/>
        <path class="cls-1" d="M63.89,213.96h-3.2v-6.48c-.03-2.02-.03-3.03-.93-3.76-.36-.29-.96-.54-1.86-.54s-2.02.28-3.09.96v9.82h-3.25v-18.29h3.25v7.9l1.64-2.33c.93-.26,1.75-.39,2.74-.39.82,0,2.27.1,3.39,1.06,1.26,1.09,1.29,2.41,1.31,3.52v8.52Z"/>
        <path class="cls-1" d="M77.1,210.62c0,2.59.05,2.77.22,3.34h-3.12c-.16-.52-.22-1.17-.22-1.89l-1.53,1.99c-.49.13-.88.21-1.64.21-1.61,0-2.71-.41-3.45-1.01-.44-.36-1.31-1.22-1.31-2.85,0-1.92,1.23-3.13,2.65-3.7,1.04-.44,2.32-.62,3.56-.62.66,0,1.01.03,1.72.1,0-1.94-.41-3.16-2.85-3.16-1.5,0-2.84.47-4.02.91l1.67-2.69c.77-.16,2.05-.41,3.31-.41.98,0,2.68.08,3.86,1.19,1.12,1.06,1.12,2.36,1.15,3.45v5.16ZM73.98,208.19c-.3-.03-.6-.05-.88-.05-1.26,0-1.83.1-2.16.21-1.15.34-1.64,1.14-1.64,1.97,0,.91.57,1.84,2.27,1.84.98,0,1.91-.39,2.41-.6v-3.37Z"/>
        <path class="cls-1" d="M83.52,213.96h-3.28v-12.8h3.28v2.23l1.56-2.07c.55-.21,1.37-.41,2.52-.41.6,0,.9.08,1.29.18v2.95c-.71-.34-1.5-.72-2.63-.72-.63,0-1.67.13-2.74.78v9.87Z"/>
        <path class="cls-1" d="M90.03,201.14h3.23v2.28l1.56-2.07c.93-.31,1.78-.49,2.76-.49,1.89,0,3.77.75,4.32,2.72l1.7-2.25c.41-.16,1.37-.47,2.76-.47.66,0,2.52.05,3.64,1.35.88,1.01.9,2.15.9,3.5v8.26h-3.23v-7.59c0-1.81-.44-3.16-2.6-3.16-1.34,0-2.52.67-3.06.98.03.31.05.62.05,1.66v8.11h-3.2v-7.56c-.03-1.76-.41-3.19-2.65-3.19-1.2,0-2.27.52-2.95.85v9.9h-3.23v-12.82Z"/>
        <path class="cls-1" d="M124.13,210.62c0,2.59.05,2.77.22,3.34h-3.12c-.16-.52-.22-1.17-.22-1.89l-1.53,1.99c-.49.13-.88.21-1.64.21-1.61,0-2.71-.41-3.45-1.01-.44-.36-1.31-1.22-1.31-2.85,0-1.92,1.23-3.13,2.65-3.7,1.04-.44,2.32-.62,3.56-.62.66,0,1.01.03,1.72.1,0-1.94-.41-3.16-2.85-3.16-1.5,0-2.84.47-4.02.91l1.67-2.69c.77-.16,2.05-.41,3.31-.41.98,0,2.68.08,3.86,1.19,1.12,1.06,1.12,2.36,1.15,3.45v5.16ZM121.02,208.19c-.3-.03-.6-.05-.88-.05-1.26,0-1.83.1-2.16.21-1.15.34-1.64,1.14-1.64,1.97,0,.91.57,1.84,2.27,1.84.98,0,1.91-.39,2.41-.6v-3.37Z"/>
        <path class="cls-1" d="M136.41,213.86c-.52.15-1.48.41-2.84.41-3.88,0-7.14-2.44-7.14-6.63,0-3.47,2.49-6.81,7.36-6.81.74,0,2.11.08,3.64.67v2.72c-.44-.34-1.56-1.11-3.28-1.11-2.63,0-4.27,1.92-4.27,4.46s1.67,4.53,4.73,4.53c1.12,0,2.05-.28,3.34-.67l-1.53,2.44Z"/>
        <path class="cls-1" d="M142.64,196.87c0,.93-.79,1.55-1.72,1.55s-1.7-.65-1.7-1.55.79-1.55,1.7-1.55,1.72.6,1.72,1.55ZM142.53,213.96h-3.2v-12.82h3.2v12.82Z"/>
        <path class="cls-1" d="M155.44,213.86c-1.07.28-2.16.41-3.26.41-4.87,0-7.33-2.8-7.33-6.66s2.57-6.79,6.51-6.79c.96,0,1.91.15,2.79.54,3.26,1.42,3.28,4.82,3.31,6.37h-9.16c.08.83.19,2.2,1.31,3.21.93.83,2.24,1.11,3.53,1.11,1.83,0,3.31-.57,3.86-.78l-1.56,2.56ZM154.18,205.83c-.03-.47-.08-1.42-.79-2.15-.49-.49-1.18-.78-1.97-.78-1.67,0-2.74,1.24-3.06,2.93h5.83Z"/>
        <path class="cls-1" d="M183.83,213.96h-3.58v-8.34h-9v8.34h-3.58v-18.29h3.58v7.3h9v-7.3h3.58v18.29Z"/>
        <path class="cls-1" d="M199.39,213.96h-3.2v-2.44l-1.72,2.33c-1.12.36-2.13.41-2.68.41-.68,0-2.16-.08-3.36-1.06-1.31-1.09-1.37-2.43-1.37-3.55v-8.5h3.23v7.43c0,1.84.27,3.32,2.74,3.32,1.07,0,2.3-.39,3.17-.98v-9.77h3.2v12.8Z"/>
        <path class="cls-1" d="M202.53,201.14h3.23v2.28l1.56-2.07c.93-.31,1.78-.49,2.76-.49,1.89,0,3.77.75,4.32,2.72l1.7-2.25c.41-.16,1.37-.47,2.76-.47.66,0,2.52.05,3.64,1.35.88,1.01.9,2.15.9,3.5v8.26h-3.23v-7.59c0-1.81-.44-3.16-2.6-3.16-1.34,0-2.52.67-3.06.98.03.31.05.62.05,1.66v8.11h-3.2v-7.56c-.03-1.76-.41-3.19-2.65-3.19-1.2,0-2.27.52-2.95.85v9.9h-3.23v-12.82Z"/>
        <path class="cls-1" d="M236.63,210.62c0,2.59.05,2.77.22,3.34h-3.12c-.16-.52-.22-1.17-.22-1.89l-1.53,1.99c-.49.13-.88.21-1.64.21-1.61,0-2.71-.41-3.45-1.01-.44-.36-1.31-1.22-1.31-2.85,0-1.92,1.23-3.13,2.65-3.7,1.04-.44,2.32-.62,3.56-.62.66,0,1.01.03,1.72.1,0-1.94-.41-3.16-2.85-3.16-1.5,0-2.84.47-4.02.91l1.67-2.69c.77-.16,2.05-.41,3.31-.41.98,0,2.68.08,3.86,1.19,1.12,1.06,1.12,2.36,1.15,3.45v5.16ZM233.51,208.19c-.3-.03-.6-.05-.88-.05-1.26,0-1.83.1-2.16.21-1.15.34-1.64,1.14-1.64,1.97,0,.91.57,1.84,2.27,1.84.98,0,1.91-.39,2.41-.6v-3.37Z"/>
        <path class="cls-1" d="M239.77,201.17h3.2v2.44l1.75-2.33c1.07-.36,2.22-.41,2.74-.41,3.88,0,4.65,2.33,4.65,5v8.11h-3.2v-7.28c0-1.94-.38-3.47-2.87-3.47-.98,0-2.13.34-3.06.96v9.79h-3.2v-12.8Z"/>
        <path class="cls-1" d="M258.56,196.87c0,.93-.79,1.55-1.72,1.55s-1.7-.65-1.7-1.55.79-1.55,1.7-1.55,1.72.6,1.72,1.55ZM258.45,213.96h-3.2v-12.82h3.2v12.82Z"/>
        <path class="cls-1" d="M267.17,214.09c-.38.08-.88.18-1.61.18s-1.86-.1-2.71-.98c-.82-.88-.82-1.79-.79-2.93l.05-7.02h-1.75l1.45-2.2h.36v-2.41l3.17-.93v3.34h3.04v2.2h-3.09l-.05,5.6c0,1.4,0,1.94.33,2.41.25.34.77.7,1.67.7.6,0,1.23-.16,1.81-.34l-1.86,2.38Z"/>
        <path class="cls-1" d="M280.93,210.62c0,2.59.05,2.77.22,3.34h-3.12c-.16-.52-.22-1.17-.22-1.89l-1.53,1.99c-.49.13-.88.21-1.64.21-1.61,0-2.71-.41-3.45-1.01-.44-.36-1.31-1.22-1.31-2.85,0-1.92,1.23-3.13,2.65-3.7,1.04-.44,2.32-.62,3.56-.62.66,0,1.01.03,1.72.1,0-1.94-.41-3.16-2.85-3.16-1.5,0-2.84.47-4.02.91l1.67-2.69c.77-.16,2.05-.41,3.31-.41.98,0,2.68.08,3.86,1.19,1.12,1.06,1.12,2.36,1.15,3.45v5.16ZM277.81,208.19c-.3-.03-.6-.05-.88-.05-1.26,0-1.83.1-2.16.21-1.15.34-1.64,1.14-1.64,1.97,0,.91.57,1.84,2.27,1.84.98,0,1.91-.39,2.41-.6v-3.37Z"/>
        <path class="cls-1" d="M287.38,196.87c0,.93-.79,1.55-1.72,1.55s-1.7-.65-1.7-1.55.79-1.55,1.7-1.55,1.72.6,1.72,1.55ZM287.27,213.96h-3.2v-12.82h3.2v12.82Z"/>
        <path class="cls-1" d="M293.73,213.96h-3.28v-12.8h3.28v2.23l1.56-2.07c.55-.21,1.37-.41,2.52-.41.6,0,.9.08,1.29.18v2.95c-.71-.34-1.5-.72-2.63-.72-.63,0-1.67.13-2.73.78v9.87Z"/>
        <path class="cls-1" d="M309.97,213.86c-1.07.28-2.16.41-3.25.41-4.87,0-7.33-2.8-7.33-6.66s2.57-6.79,6.51-6.79c.96,0,1.91.15,2.79.54,3.26,1.42,3.28,4.82,3.31,6.37h-9.16c.08.83.19,2.2,1.31,3.21.93.83,2.24,1.11,3.53,1.11,1.83,0,3.31-.57,3.86-.78l-1.56,2.56ZM308.71,205.83c-.03-.47-.08-1.42-.79-2.15-.49-.49-1.18-.78-1.97-.78-1.67,0-2.73,1.24-3.06,2.93h5.83Z"/>
      </g>
    </g>
  </g>
</svg>