<?xml version="1.0" encoding="UTF-8" standalone="no"?>
<svg
   id="Calque_2"
   data-name="Calque 2"
   viewBox="0 0 128 128"
   version="1.1"
   sodipodi:docname="favicon.svg"
   width="128"
   height="128"
   inkscape:version="1.4.3 (0d15f75, 2025-12-25)"
   xmlns:inkscape="http://www.inkscape.org/namespaces/inkscape"
   xmlns:sodipodi="http://sodipodi.sourceforge.net/DTD/sodipodi-0.dtd"
   xmlns="http://www.w3.org/2000/svg"
   xmlns:svg="http://www.w3.org/2000/svg">
  <sodipodi:namedview
     id="namedview7"
     pagecolor="#ffffff"
     bordercolor="#000000"
     borderopacity="0.25"
     inkscape:showpageshadow="2"
     inkscape:pageopacity="0.0"
     inkscape:pagecheckerboard="0"
     inkscape:deskcolor="#d1d1d1"
     inkscape:zoom="2.1379578"
     inkscape:cx="165.57858"
     inkscape:cy="112.49053"
     inkscape:window-width="1920"
     inkscape:window-height="991"
     inkscape:window-x="-9"
     inkscape:window-y="-9"
     inkscape:window-maximized="1"
     inkscape:current-layer="Calque_7"
     showguides="false" />
  <defs
     id="defs1">
    <style
       id="style1">
      .cls-1 {
        fill: #b5d59a;
      }

      .cls-2 {
        fill: #00674b;
      }
    </style>
  </defs>
  <g
     id="Calque_7"
     data-name="Calque 7">
    <g
       id="g7"
       transform="matrix(0.62335638,0,0,0.62335657,-46.122139,7.673)">
      <g
         id="g5">
        <g
           id="g2">
          <path
             class="cls-1"
             d="M 175.38,0 C 136.87,0 104,24.08 90.97,58 c 0.32,-0.74 2.06,-4.62 3.64,-5.14 1.75,-0.58 7.74,-5.91 7.82,-6.57 0.08,-0.67 5.91,-2.5 7.15,0.91 1.25,3.41 6.41,-1.5 6.24,-3.24 -0.17,-1.74 -0.67,-5.82 -0.67,-5.82 l 9.57,-0.17 c 0,0 4.16,-1.08 4.41,-5.16 0.25,-4.08 0.25,-6.24 0.25,-6.24 l 5.91,-0.17 0.08,-6.07 c 0,0 -5.66,4.41 -8.65,5.07 -2.99,0.67 -5.99,2 -7.07,1.41 -1.08,-0.59 -0.33,-1.59 -0.33,-1.59 l 2.84,-1.31 1.5,-2.72 c 0,0 2.94,-1.26 3.58,-2.52 0.63,-1.26 3.37,-2.31 3.37,-2.31 0,0 3.16,-1.68 3.37,-2.31 0.21,-0.63 6.1,0 6.1,0 l 0.84,2.1 c 0,0 2.94,0.21 3.58,-0.42 0.64,-0.63 3.16,-3.79 3.58,-5.47 0.42,-1.68 1.68,1.05 1.05,3.16 -0.63,2.1 -1.47,4.84 -2.73,5.47 -1.26,0.63 -5.26,0.84 -5.26,0.84 0,0 -2.52,3.86 -2.52,5.51 0,1.65 2.52,-3.4 3.37,-3.4 0.85,0 3.16,-0.63 4.21,1.05 l 0.57,-2.85 c 0,0 6.93,-4.71 7.62,-6.93 0.69,-2.22 0,-3.37 0,-3.37 h -1.64 c -0.41,0 -0.64,-0.47 -0.38,-0.79 1.06,-1.28 3.37,-3.71 5.9,-4.02 1.98,-0.24 3.05,-0.88 3.61,-1.39 0.47,-0.43 1.06,-0.72 1.7,-0.75 4.06,-0.22 17.6,-0.87 20.18,0.07 2.76,1 7.92,1.67 11.13,3.12 0.56,0.25 0.97,0.73 1.16,1.31 0.27,0.8 0.78,1.9 1.56,2.08 1.25,0.28 3.19,0 3.46,1.66 0.25,1.51 -3.7,1.99 -6.4,1.96 -0.36,0 -0.57,0.39 -0.38,0.69 0.65,1.01 1.95,2.71 3.32,2.61 0.89,-0.06 1.69,-0.1 2.3,-0.12 0.66,-0.02 1.22,0.44 1.34,1.09 0.17,0.93 0.47,2.19 0.93,2.77 1.11,1.39 1.94,0.97 2.49,2.49 0.55,1.52 1.39,2.62 2.35,3.04 0.97,0.42 5.68,0.7 5.68,0.7 0,0 1.11,0.97 -0.83,1.52 -1.94,0.55 -4.85,-1.39 -6.51,0 -0.77,0.64 -1.06,1.19 -1.16,1.6 -0.1,0.44 -0.49,0.75 -0.95,0.75 h -1.77 c -0.42,0 1.66,6.93 -3.19,7.2 -4.85,0.27 -2.91,-4.02 -1.66,-4.16 0.82,-0.09 0.62,-1.13 0.39,-1.84 -0.14,-0.42 -0.47,-0.73 -0.9,-0.84 -1.82,-0.46 -7.11,-1.42 -10.16,1.98 0,0 -2,1.8 -1.42,4.06 0.13,0.49 -0.03,1.01 -0.45,1.29 -1.62,1.09 -5.21,3.84 -4.78,6.43 0.55,3.32 -0.83,4.57 2.91,6.23 0,0 0.83,0.42 1.94,1.39 1.11,0.97 4.16,2.77 5.13,-0.83 0.75,-2.8 -0.84,-4.68 -1.58,-5.38 -0.22,-0.21 -0.36,-0.5 -0.35,-0.81 0.05,-1.64 0.37,-6.72 2.34,-6.84 2.35,-0.14 5.13,3.05 2.49,6.93 0,0 -0.42,2.22 0.28,2.35 0.52,0.1 5.96,-0.03 8.64,-0.1 0.63,-0.02 1.03,0.68 0.7,1.22 l -0.1,0.15 c -0.15,0.24 -0.39,0.39 -0.66,0.44 -0.97,0.16 -3.37,0.83 -4.57,3.55 -1.52,3.46 -1.94,4.29 -4.43,5.13 -2.49,0.83 -4.71,0.55 -6.37,2.35 -1.66,1.8 -4.71,0 -4.71,0 l 0.44,-3.76 c 0.06,-0.5 -0.35,-0.92 -0.85,-0.89 h -0.19 c -0.51,0.05 -0.9,0.46 -0.9,0.97 0,2.06 -0.43,6.74 -4.7,3.74 -0.87,-0.61 -1.58,-1.43 -2.14,-2.34 -1.29,-2.1 -3.97,-6.31 -4.7,-6.31 -0.97,0 2.91,-2.22 2.91,-3.19 0,-0.97 -5.82,-5.4 -7.62,-2.08 -1.8,3.32 2.93,6.79 2.93,6.79 v 10.67 h -3.76 l 0.28,-8.87 c 0,0 -2.08,-3.6 -3.46,-3.46 -1.38,0.14 0.28,5.96 -0.55,6.37 -0.83,0.42 -3.88,1.39 -3.6,2.35 0.28,0.96 4.85,4.71 4.85,4.71 l 1.8,13.71 -6.1,0.55 c 0,0 -10.94,9.28 -4.16,13.71 6.79,4.43 14.71,-1.8 14.71,-1.8 l -0.85,8.87 c 0,0 -8.17,-0.28 -9.28,0 -1.11,0.28 -21.75,7.48 -23.27,14.68 -1.52,7.2 -1.25,7.62 -1.94,10.11 -0.69,2.49 -3.6,4.71 -3.32,5.68 0.28,0.97 9.28,1.52 9.28,4.43 0,2.91 0.14,7.34 0.14,7.34 l 5.99,0.81 c 0.77,0.1 1.45,0.55 1.85,1.21 l 1.72,2.83 c 0,0 28.47,2.35 28.92,4.29 0.45,1.94 -1.01,5.82 0,6.65 0.49,0.41 1.37,0.91 2.14,1.32 0.9,0.48 1.42,1.46 1.32,2.48 -0.32,3.16 -0.89,9.63 -0.37,10.46 0.69,1.11 3.46,5.82 3.46,5.82 0,0 -31.31,-1.52 -37.82,-4.02 0,0 -19.28,-7.56 -23.23,-11.95 l -5.24,-4.55 -4.78,-4.65 -8.41,-8.98 c 16.47,22.23 43.15,36.99 72.94,36.99 49.92,0 90.39,-40.47 90.39,-90.39 C 265.8,40.41 225.3,0 175.38,0 Z m -1.97,98.59 1.29,-6.03 c 0,0 3.62,0.4 4.18,-0.16 0.24,-0.24 0.56,-0.77 0.84,-1.29 0.34,-0.63 -0.1,-1.39 -0.81,-1.41 l -3.09,-0.11 0.24,-6.92 c 0,0 2.9,-0.97 3.46,0 0.56,0.97 1.29,5.31 2.49,5.71 1.21,0.4 6.19,4.26 7.56,4.18 1.37,-0.08 -4.5,-8.77 -4.5,-8.77 0,0 -1.53,-3.14 0.16,-3.06 1.69,0.08 8.77,6.6 9.09,8.29 0.32,1.69 2.33,5.39 3.54,5.63 1.21,0.24 4.83,3.3 4.83,3.3 l -20.67,2.09 z m 25.74,13.84 c -9.98,1.93 -8.93,-4.99 -8.93,-4.99 l 15.04,-2.17 c 0,0 3.86,5.23 -6.11,7.16 z m 58.55,10.26 c 0,0 -14.95,27.4 -19.1,28.01 0,0 -0.95,0.69 -1.73,-0.69 -0.78,-1.38 -2.33,-3.63 -3.63,-1.04 0,0 0.78,5.27 -1.38,6.31 -2.16,1.04 -4.58,2.51 -5.45,4.93 -0.86,2.42 -9.42,3.11 -9.42,3.11 0,0 3.37,-5.27 3.54,-6.92 0.17,-1.65 5.1,-17.2 17.11,-23.6 0,0 3.54,-3.12 3.11,-6.49 -0.43,-3.37 -8.21,3.89 -8.21,3.89 0,0 -0.78,1.56 -3.37,-0.61 -2.59,-2.16 -7.17,-2.77 -7.09,-9.59 0.09,-6.83 -7.17,-7.25 -7.17,-7.25 l 0.95,-8.05 c 0,0 6.74,3.72 9.51,7.26 2.77,3.54 5.96,10.11 6.4,11.93 0.43,1.82 7.35,-3.8 7.35,-3.8 0,0 2.51,-7.87 6.92,-9.34 4.41,-1.47 1.21,-7.17 0.09,-8.3 -0.28,-0.28 -0.63,-0.49 -0.98,-0.65 -1.04,-0.47 -2.22,0.36 -2.22,1.51 v 1.48 c 0,0 -9.42,0.61 -8.38,-5.53 0,0 -0.43,-1.21 1.9,-1.73 2.33,-0.52 8.13,0 8.13,0 0,0 2.59,-0.69 3.11,-1.73 0.52,-1.04 13.23,-0.86 13.23,-0.86 l -0.52,22.21 -2.68,5.53 z"
             id="path1" />
          <path
             class="cls-1"
             d="m 102.69,140.4 h 5.4 l -0.42,-4.43 c 0,0 -5.82,-8.59 -9.56,-8.45 v -3.6 c 0,0 -3.05,-3.82 -5.26,-2.91 L 91.74,105.36 87.1,101.2 88.64,70.37 90.9,58.18 c -3.82,10.01 -5.92,20.87 -5.92,32.22 0,20.13 6.58,38.71 17.7,53.73 v -3.72 z"
             id="path2" />
        </g>
        <path
           class="cls-1"
           d="m 143.71,33.85 c -0.48,-0.74 -0.38,-1.72 -0.09,-2.55 0.61,-1.73 1.39,-3.34 2.87,-4.42 1.48,-1.08 3.17,-2.44 4.73,-3.41 3.39,-2.11 6.83,-4.16 9.06,-7.47 0.89,-1.33 1.15,-3.34 2.38,-4.37 1.23,-1.03 4.02,-1.78 5.43,-1.03 0.72,0.38 1.89,1.65 2.59,2.06 1.03,0.6 1.32,0.34 2.51,0.25 1.27,-0.1 3.71,0.81 4.24,2.1 0.54,1.32 -0.15,3.68 -1.07,4.77 -0.92,1.09 -2.16,2.38 -3,3.54 -1.01,1.38 -1.77,2.05 -3.13,3.08 -1.12,0.86 -3.17,0.82 -4.57,1 -4.9,0.61 -9.65,2.48 -13.66,5.37 -1.31,0.94 -2.7,2.01 -4.37,2.11 -1.27,0.08 -3.11,0.2 -3.91,-1.02 z"
           id="path3" />
        <path
           class="cls-1"
           d="m 160.44,37.61 c 0.35,0.4 0.92,0.5 1.44,0.58 2.12,0.32 5.48,1.44 7.3,0.4 0.27,-0.16 0.97,-0.78 1.09,-1.04 0.22,-0.49 0.16,-1.27 -1.09,-1.48 -0.53,-0.09 -2.1,0 -2.55,-0.28 -0.91,-0.58 -0.95,-1.99 -1.83,-2.62 -2.18,-1.54 -6.13,2.39 -4.36,4.43 z"
           id="path4" />
        <path
           class="cls-1"
           d="m 117.31,47.53 c -0.03,-1.48 0.36,-3.02 1.3,-4.16 0.94,-1.14 2.49,-1.84 3.95,-1.57 0.46,0.09 0.92,0.28 1.23,0.63 0.31,0.35 0.44,0.89 0.22,1.31 -0.34,0.67 -1.28,0.71 -1.93,1.09 -1.07,0.62 -1.26,2.06 -1.26,3.29 0,1.23 0,2.63 -0.9,3.47 -2.11,1.97 -2.58,-2.85 -2.61,-4.06 z"
           id="path5" />
      </g>
      <polygon
         class="cls-2"
         points="157.45,60.28 177.1,60.28 177.1,95.63 199.13,95.63 199.13,60.28 219.1,60.28 219.1,144.03 199.45,144.03 199.13,108.46 176.95,108.62 177.1,144.03 157.45,144.03 "
         id="polygon5" />
      <polygon
         class="cls-2"
         points="259.04,60.28 278.69,60.28 279.33,144.03 259.04,144.03 "
         id="polygon6" />
      <path
         class="cls-2"
         d="M 130.63,74.73 C 125.03,56.32 103.21,57.72 103.21,57.72 H 73.99 v 84.66 H 93.6 v -30.82 l 15.41,-0.6 c 17.61,-1.2 27.22,-17.81 21.62,-36.23 z m -22.88,23.05 c 0,0 -1.31,1.39 -5.85,1.99 -4.54,0.6 -8.64,0 -8.64,0 V 69.02 c 0,0 12.74,-2.22 16.95,4.54 4.21,6.76 3.74,19.67 -2.46,24.22 z"
         id="path7" />
    </g>
  </g>
</svg>
